<?xml version="1.0" encoding="UTF-8" standalone="no"?>
<svg width="512px" height="512px" viewBox="0 0 512 512" version="1.1" xmlns="http://www.w3.org/2000/svg" xmlns:xlink="http://www.w3.org/1999/xlink">
    <title></title>
    <description></description>
    <defs>
    </defs>
    <path stroke="none" fill="#C4C4C4" d="M489.826,256.175 C489.826,257.015 489.826,258.041 489.826,259.06 C489.665,279.43 486.772,299.803 481.172,319.502 C475.911,339.195 467.588,358.049 457.06,375.535 C446.7,393.191 433.973,409.328 419.202,423.582 C404.6,437.846 388.123,450.24 370.298,460.092 C352.472,470.112 333.279,477.748 313.587,482.678 C293.725,487.946 273.345,490.321 252.965,489.805 C232.594,489.805 212.214,486.75 192.522,481.151 C172.83,475.712 153.977,467.567 136.49,457.038 C118.826,446.679 102.697,433.942 88.434,419.179 C74.171,404.57 61.784,388.101 51.925,370.275 C41.913,352.449 34.269,333.427 29.339,313.556 C24.087,293.702 21.711,273.324 22.212,253.105 C22.212,232.573 25.275,212.193 30.875,192.662 C36.313,172.8 44.45,153.955 54.987,136.469 C65.346,118.804 78.082,102.675 92.853,88.5820000000001 C107.456,74.15 123.923,61.7550000000001 141.758,51.9040000000001 C159.583,41.8910000000001 178.589,34.2470000000001 198.46,29.3180000000001 C218.33,24.2270000000001 238.702,21.6900000000001 258.912,22.1910000000001 C279.453,22.1910000000001 299.832,25.2540000000001 319.355,30.8530000000001 C339.217,36.2910000000001 358.07,44.4280000000001 375.556,54.9660000000001 C393.221,65.3170000000001 409.35,78.0530000000001 423.435,92.8320000000001 C437.867,107.426 450.263,123.902 460.113,141.721 C470.134,159.563 477.786,178.569 482.699,198.439 C487.629,217.29 490.166,236.813 489.826,256.175 " />
    <path stroke="none" fill="#FFFFFF" d="M486.603,256.175 C486.603,256.854 486.603,257.872 486.603,258.89 C486.272,279.092 483.548,299.123 477.949,318.493 C472.68,338.009 464.535,356.69 454.176,373.839 C443.993,391.155 431.428,407.124 416.826,421.208 C402.555,435.3 386.257,447.356 368.6,457.208 C351.114,467.058 332.269,474.694 312.73,479.454 C293.207,484.544 273.005,486.921 253.143,486.581 C232.934,486.411 212.893,483.526 193.54,477.927 C174.017,472.488 155.512,464.513 138.186,454.154 C120.861,443.965 104.91,431.398 90.817,416.804 C76.716,402.534 64.66,386.236 54.809,368.577 C44.967,351.083 37.33,332.239 32.571,312.708 C27.48,293.185 25.105,272.983 25.444,253.104 C25.614,232.911 28.499,212.871 34.106,193.517 C39.537,174.156 47.52,155.473 57.88,138.156 C68.062,120.84 80.618,104.88 95.229,90.957 C109.492,76.694 125.791,64.639 143.455,54.788 C160.942,44.945 179.786,37.471 199.309,32.55 C218.848,27.451 239.049,25.083 258.912,25.414 C279.113,25.592 299.145,28.469 318.516,34.085 C337.861,39.507 356.543,47.499 373.861,57.858 C391.177,68.04 407.145,80.597 421.068,95.207 C435.331,109.47 447.38,125.769 457.238,143.434 C467.088,160.913 474.554,179.764 479.484,199.288 C484.396,217.791 486.772,236.983 486.603,256.175 " />
    <path stroke="none" fill="#D90000" d="M476.59,256.175 C476.59,256.854 476.59,257.872 476.59,258.89 C476.251,278.073 473.697,297.264 468.268,315.762 C463.338,334.444 455.533,352.27 445.52,368.739 C435.662,385.385 423.775,400.659 409.86,413.911 C396.107,427.487 380.657,439.042 363.671,448.376 C347.033,457.886 328.859,465.19 310.185,469.772 C291.689,474.524 272.328,476.909 253.143,476.569 C233.952,476.391 214.76,473.676 196.255,468.245 C177.572,463.147 159.754,455.511 143.277,445.491 C126.639,435.809 111.358,423.753 98.114,409.831 C84.53,396.085 72.991,380.634 63.641,363.649 C54.13,347.01 46.841,328.836 42.251,310.163 C37.5,291.649 35.124,272.304 35.464,253.104 C35.633,233.929 38.349,214.737 43.787,196.232 C48.878,177.719 56.521,159.724 66.525,143.255 C76.206,126.616 88.262,111.505 102.186,98.091 C115.947,84.508 131.397,72.96 148.374,63.619 C165.013,54.108 183.178,46.98 201.86,42.229 C220.365,37.469 239.718,35.102 258.91,35.441 C278.094,35.603 297.285,38.488 315.782,43.749 C334.295,48.848 352.291,56.483 368.767,66.504 C385.405,76.185 400.516,88.241 413.93,102.164 C427.522,115.917 439.061,131.376 448.394,148.353 C457.905,164.991 465.048,182.995 469.791,201.839 C474.376,219.488 476.752,237.831 476.59,256.175 Z M423.104,256.175 C423.104,256.676 423.104,257.355 423.104,258.211 C422.765,272.643 420.898,287.236 416.826,301.33 C413.077,315.422 407.145,328.836 399.501,341.41 C392.196,353.967 383.032,365.523 372.504,375.705 C362.152,385.894 350.435,394.726 337.523,401.676 C324.965,408.989 311.211,414.41 297.119,417.821 C283.026,421.548 268.255,423.243 253.824,423.075 C239.384,422.905 224.781,420.868 210.688,416.804 C196.604,412.894 183.181,407.124 170.625,399.48 C158.051,392.173 146.512,383.011 136.322,372.482 C126.132,362.123 117.307,350.406 110.343,337.5 C103.037,324.936 97.6079999999999,311.182 94.213,297.088 C90.481,283.004 88.7749999999999,268.395 88.9439999999999,253.963 C89.1139999999999,239.36 91.1499999999999,224.759 95.231,210.666 C99.134,196.573 104.912,183.159 112.548,170.602 C119.845,158.029 129.025,146.49 139.545,136.469 C149.904,126.11 161.622,117.285 174.526,110.32 C187.084,103.015 200.845,97.585 214.938,94.191 C229.031,90.45 243.625,88.753 258.064,88.922 C272.666,89.092 287.267,91.128 301.352,95.208 C315.461,99.111 328.859,104.881 341.432,112.525 C353.99,119.822 365.545,128.986 375.557,139.523 C385.916,149.875 394.749,161.591 401.714,174.497 C409.011,187.062 414.449,200.815 417.844,214.908 C421.407,228.328 423.273,242.243 423.104,256.175 " />
</svg>
