<?xml version="1.0" encoding="UTF-8" standalone="no"?>
<svg width="566.93px" height="566.93px" viewBox="0 0 566.93 566.93" version="1.1" xmlns="http://www.w3.org/2000/svg" xmlns:xlink="http://www.w3.org/1999/xlink">
    <defs>
    </defs>
    <path stroke="none" fill="#000000" d="M199.579,65.237 C235.463,65.237 269.199,79.211 294.573,104.585 C319.947,129.958 333.921,163.695 333.921,199.579 C333.921,235.463 319.947,269.199 294.573,294.573 C269.199,319.947 235.463,333.921 199.579,333.921 C163.695,333.921 129.958,319.947 104.585,294.573 C79.211,269.199 65.237,235.463 65.237,199.579 C65.237,163.695 79.211,129.958 104.585,104.585 C129.958,79.211 163.695,65.237 199.579,65.237 M199.579,25.237 C103.292,25.237 25.237,103.293 25.237,199.579 C25.237,295.865 103.293,373.921 199.579,373.921 C295.865,373.921 373.921,295.865 373.921,199.579 C373.921,103.293 295.865,25.237 199.579,25.237 L199.579,25.237 Z " />
    <rect stroke="none" fill="#000000" transform="matrix(0.7071, -0.7071, 0.7071, 0.7071, -137.9762, 333.1435)" x="313.735" y="309.86" width="38.816" height="46.521" />
    <path stroke="none" fill="#000000" d="M471.1,537.269 C465.588,542.781 456.569,542.781 451.056,537.269 L306.297,392.511 C300.784,386.999 300.784,377.98 306.297,372.467 L372.49,306.274 C378.002,300.762 387.021,300.762 392.533,306.274 L537.293,451.034 C542.805,456.546 542.805,465.565 537.293,471.077 L471.1,537.269 Z " />
    <ellipse stroke="none" fill="#000000" transform="matrix(0.1217, -0.9926, 0.9926, 0.1217, -23.3282, 372.7947)" cx="198.98" cy="199.579" rx="141.783" ry="141.782" />
</svg>
