<?xml version="1.0" encoding="UTF-8" standalone="no"?>
<svg width="755.905511811024px" height="220.472440944882px" viewBox="0 0 755.905511811024 220.472440944882" version="1.1" xmlns="http://www.w3.org/2000/svg" xmlns:xlink="http://www.w3.org/1999/xlink">
    <defs>
    </defs>
    <rect stroke-width="1" stroke="#0000FF" fill="none" transform="matrix(0.62992125984252, 0, 0, 0.62992125984252, 0, 0)" x="1" y="1" width="1198" height="348" />
    <rect stroke="none" fill="#0000FF" transform="matrix(0.62992125984252, 0, 0, 0.62992125984252, 0, 0)" x="100" y="100" width="1000" height="150" />
    <ellipse stroke="none" fill="#FF0000" transform="matrix(0.62992125984252, 0, 0, 0.62992125984252, 0, 0)" cx="200" cy="100" rx="50" ry="50" />
    <ellipse stroke="none" fill="#FF0000" fill-opacity="0.8" transform="matrix(0.62992125984252, 0, 0, 0.62992125984252, 0, 0)" cx="400" cy="100" rx="50" ry="50" />
    <ellipse stroke="none" fill="#FF0000" fill-opacity="0.6" transform="matrix(0.62992125984252, 0, 0, 0.62992125984252, 0, 0)" cx="600" cy="100" rx="50" ry="50" />
    <ellipse stroke="none" fill="#FF0000" fill-opacity="0.4" transform="matrix(0.62992125984252, 0, 0, 0.62992125984252, 0, 0)" cx="800" cy="100" rx="50" ry="50" />
    <ellipse stroke="none" fill="#FF0000" fill-opacity="0.2" transform="matrix(0.62992125984252, 0, 0, 0.62992125984252, 0, 0)" cx="1000" cy="100" rx="50" ry="50" />
    <ellipse stroke="none" fill="#FF0000" transform="matrix(0.62992125984252, 0, 0, 0.62992125984252, 0, 0)" cx="182.5" cy="250" rx="50" ry="50" />
    <ellipse stroke="none" fill="#00FF00" transform="matrix(0.62992125984252, 0, 0, 0.62992125984252, 0, 0)" cx="217.5" cy="250" rx="50" ry="50" />
    <ellipse stroke="none" fill="#FF0000" transform="matrix(0.62992125984252, 0, 0, 0.62992125984252, 0, 0)" cx="382.5" cy="250" rx="50" ry="50" />
    <ellipse stroke="none" fill="#00FF00" transform="matrix(0.62992125984252, 0, 0, 0.62992125984252, 0, 0)" cx="417.5" cy="250" rx="50" ry="50" />
    <ellipse stroke="none" fill="#FF0000" fill-opacity="0.501960784313725" transform="matrix(0.62992125984252, 0, 0, 0.62992125984252, 0, 0)" cx="582.5" cy="250" rx="50" ry="50" />
    <ellipse stroke="none" fill="#00FF00" fill-opacity="0.501960784313725" transform="matrix(0.62992125984252, 0, 0, 0.62992125984252, 0, 0)" cx="617.5" cy="250" rx="50" ry="50" />
    <ellipse stroke="none" fill="#00FF00" fill-opacity="0.501960784313725" transform="matrix(0.62992125984252, 0, 0, 0.62992125984252, 0, 0)" cx="817.5" cy="250" rx="50" ry="50" />
    <ellipse stroke="none" fill="#FF0000" fill-opacity="0.501960784313725" transform="matrix(0.62992125984252, 0, 0, 0.62992125984252, 0, 0)" cx="782.5" cy="250" rx="50" ry="50" />
    <ellipse stroke="none" fill="#FF0000" fill-opacity="0.501960784313725" transform="matrix(0.62992125984252, 0, 0, 0.62992125984252, 0, 0)" cx="982.5" cy="250" rx="50" ry="50" />
    <ellipse stroke="none" fill="#00FF00" fill-opacity="0.501960784313725" transform="matrix(0.62992125984252, 0, 0, 0.62992125984252, 0, 0)" cx="1017.5" cy="250" rx="50" ry="50" />
</svg>
