<?xml version="1.0" encoding="UTF-8" standalone="no"?>
<svg width="152px" height="152px" viewBox="0 0 152 152" version="1.1" xmlns="http://www.w3.org/2000/svg" xmlns:xlink="http://www.w3.org/1999/xlink">
    <title></title>
    <description></description>
    <defs>
        <radialGradient cx="52.6568696%" cy="50%" fx="52.6568696%" fy="50%" r="50%" id="radialGradient-1">
            <stop stop-color="#E9E9E9" offset="0%" />
            <stop stop-color="#C1C1C1" offset="100%" />
        </radialGradient>
        <linearGradient x1="50%" y1="0%" x2="50%" y2="100%" id="linearGradient-2">
            <stop stop-color="#40A6FC" offset="0%" />
            <stop stop-color="#2537AC" offset="100%" />
        </linearGradient>
    </defs>
    <path stroke="none" fill="#FBFBFB" transform="matrix(0.707106781186547, 0.707106781186548, -0.707106781186548, 0.707106781186547, -880.5, -67.5880579474292)" d="M819.999031,419.110049 C819.518837,198.605325 640.617185,20 420,20 C199.086089,20 20,199.086089 20,420 C20,640.617185 198.605325,819.518837 419.110049,819.999031 L418.702949,719.997456 C253.614156,719.29846 120,585.252868 120,420 C120,254.314567 254.314567,120 420,120 C585.252868,120 719.29846,253.614156 719.997255,418.702948 L819.999102,419.110049 Z " />
    <path stroke="none" fill="#FBFBFB" transform="matrix(0.707106781186547, 0.707106781186548, -0.707106781186548, 0.707106781186547, -880.5, -67.5880579474292)" d="M633.976656,417.31773 C632.275369,301.424475 537.797919,208 421.5,208 C364.93117,208 339.688141,336.953201 339.688141,336.953201 C339.688141,336.953201 209,359.708315 209,420.5 C209,536.287876 301.606817,630.446259 416.794229,632.948925 L415.254935,532.829593 C356.027678,529.589037 309,480.536473 309,420.5 C309,388.648253 362.297476,404.656146 383.570518,384.188705 C403.794021,364.731058 391.219709,308 421.5,308 C482.050562,308 531.4283,355.836517 533.90274,415.779075 L633.976656,417.31773 Z " />
    <rect stroke="none" fill="url(#radialGradient-1)" transform="matrix(1, 0, 0, 1, -65, -6)" x="64.0497592" y="4.8341637" width="155.051899" height="154.693238" />
    <rect stroke="none" fill="url(#linearGradient-2)" transform="matrix(1, 0, 0, 1, -65, -6)" x="64.0497592" y="4.8341637" width="155.051899" height="154.693238" />
    <path stroke="none" fill="#FBFBFB" transform="matrix(0.707106781186547, 0.707106781186548, -0.707106781186548, 0.707106781186547, 76.6390751759374, -5.97598711185483)" d="M124.162314,63.2437068 C124.051704,29.9649074 96.9774042,3.02135231 63.5955056,3.02135231 C30.1451917,3.02135231 3.02835741,30.0754608 3.02835741,63.4483986 C3.02835741,96.7812127 30.0800267,123.810382 63.4748831,123.875328 L63.4308761,108.768392 C38.4188582,108.679857 18.1701445,88.4233296 18.1701445,63.4483986 C18.1701445,38.4186952 38.5077702,18.1281139 63.5955056,18.1281139 C88.6000627,18.1281139 108.885956,38.2843714 109.020197,63.1995974 L124.162314,63.2437068 Z " />
    <path stroke="none" fill="#FBFBFB" transform="matrix(0.707106781186547, 0.707106781186548, -0.707106781186548, 0.707106781186547, 76.6390751759374, -5.97598711185483)" d="M95.9948028,63.0044877 C95.7167003,45.5146798 81.4192365,31.4220641 63.8226324,31.4220641 C55.2571007,31.4220641 51.4348549,50.9027167 51.4348549,50.9027167 C51.4348549,50.9027167 31.6463349,54.3402774 31.6463349,63.5239324 C31.6463349,81.0313466 45.69371,95.265408 63.1568153,95.6190644 L62.9418202,80.4967114 C53.94328,80.0394229 46.788122,72.6153336 46.788122,63.5239324 C46.788122,58.7121649 54.8583123,61.1304392 58.0794311,58.0384717 C61.1416309,55.0990513 59.2376553,46.5288256 63.8226324,46.5288256 C72.9837418,46.5288256 80.4557892,53.7438273 80.8415039,62.7890449 L95.9948028,63.0044877 Z " />
</svg>
