<?xml version="1.0" encoding="UTF-8" standalone="no"?>
<svg width="190px" height="160px" viewBox="0 0 190 160" version="1.1" xmlns="http://www.w3.org/2000/svg" xmlns:xlink="http://www.w3.org/1999/xlink">
    <defs>
    </defs>
    <path stroke-width="1" stroke="#000000" fill="#000000" fill-opacity="0" d="M10,10 C20,20 40,20 50,10 " />
    <path stroke-width="1" stroke="#000000" fill="#000000" fill-opacity="0" d="M70,10 C70,20 120,20 120,10 " />
    <path stroke-width="1" stroke="#000000" fill="#000000" fill-opacity="0" d="M130,10 C120,20 180,20 170,10 " />
    <path stroke-width="1" stroke="#000000" fill="#000000" fill-opacity="0" d="M10,60 C20,80 40,80 50,60 " />
    <path stroke-width="1" stroke="#000000" fill="#000000" fill-opacity="0" d="M70,60 C70,80 110,80 110,60 " />
    <path stroke-width="1" stroke="#000000" fill="#000000" fill-opacity="0" d="M130,60 C120,80 180,80 170,60 " />
    <path stroke-width="1" stroke="#000000" fill="#000000" fill-opacity="0" d="M10,110 C20,140 40,140 50,110 " />
    <path stroke-width="1" stroke="#000000" fill="#000000" fill-opacity="0" d="M70,110 C70,140 110,140 110,110 " />
    <path stroke-width="1" stroke="#000000" fill="#000000" fill-opacity="0" d="M130,110 C120,140 180,140 170,110 " />
</svg>
