<?xml version="1.0" encoding="UTF-8" standalone="no"?>
<svg width="252px" height="252px" viewBox="0 0 252 252" version="1.1" xmlns="http://www.w3.org/2000/svg" xmlns:xlink="http://www.w3.org/1999/xlink">
    <title></title>
    <description></description>
    <defs>
        <radialGradient cx="50%" cy="50%" fx="50%" fy="50%" r="50%" id="radialGradient-1">
            <stop stop-color="#FECA48" offset="0%" />
            <stop stop-color="#FABF3D" offset="90.0576637%" />
            <stop stop-color="#EF822F" offset="100%" />
        </radialGradient>
        <linearGradient x1="50%" y1="0%" x2="50%" y2="100%" id="linearGradient-2">
            <stop stop-color="#FFF0D5" offset="0%" />
            <stop stop-color="#F6C856" offset="80.2327983%" />
            <stop stop-color="#FCC644" offset="100%" />
        </linearGradient>
    </defs>
    <ellipse stroke="none" fill="url(#radialGradient-1)" cx="126" cy="126" rx="126" ry="126" />
    <path stroke="none" fill="url(#linearGradient-2)" d="M126.115044,93.5413718 C181.253593,93.5413718 223,132.706197 223,93.5413728 C222.999997,54.3765483 174.645996,15.9354417 126.115044,15.9354377 C77.5840912,15.9354339 28.9999961,48.6575541 29,93.5413728 C29.0000065,138.425191 70.9764947,93.5413718 126.115044,93.5413718 Z " />
    <path stroke="none" fill="#8B572A" transform="matrix(1, 0, 0, 1, 78, 86)" d="M13,34 C20.1797021,34 26,26.3888412 26,17 C26,7.61115879 20.1797021,0 13,0 C5.8202979,0 0,7.61115879 0,17 C0,26.3888412 5.8202979,34 13,34 Z " />
    <path stroke="none" fill="#8B572A" transform="matrix(1, 0, 0, 1, 78, 86)" d="M83,34 C90.1797021,34 96,26.3888412 96,17 C96,7.61115879 90.1797021,0 83,0 C75.8202979,0 70,7.61115879 70,17 C70,26.3888412 75.8202979,34 83,34 Z " />
    <path stroke="none" fill="#8B572A" d="M73.7076202,205.736936 C91.010444,219.000019 106.26483,222.789709 126.466812,222.789704 C145.411512,222.789702 162.708188,217.163123 177.347778,205.736936 C202.076328,186.436324 209.416243,157.394806 209.416244,146.876676 C209.416246,136.788471 182.174423,154.503021 126.466808,154.503021 C69.954881,154.503021 42.8933981,136.790855 42.8934015,146.876676 C42.8934056,156.962497 50.6795405,188.085286 73.7076202,205.736936 Z " />
</svg>
