<?xml version="1.0" encoding="UTF-8" standalone="no"?>
<svg width="144.4800096px" height="475.680048px" viewBox="0 0 144.4800096 475.680048" version="1.1" xmlns="http://www.w3.org/2000/svg" xmlns:xlink="http://www.w3.org/1999/xlink">
    <defs>
    </defs>
    <path stroke="none" fill="#545454" transform="matrix(0.159999948615745, 0, 0, 0.159999951564096, 0, 0)" d="M0,183.19534 C0,120.56221 50.535864,69.78898 112.87507,69.78898 L790.12453,69.78898 C852.46396,69.78898 903.00029,120.56221 903.00029,183.19534 L903.00029,2859.5968 C903.00029,2922.2324 852.46396,2973.001 790.12453,2973.001 L112.87507,2973.001 C50.535864,2973.001 0,2922.2324 0,2859.5968 Z M847.43158,2857.85255 C847.43158,2884.83217 825.66138,2906.70494 798.80826,2906.70494 C771.95399,2906.70494 750.18493,2884.83217 750.18493,2857.85255 C750.18493,2830.87177 771.95399,2809.00016 798.80826,2809.00016 C825.66138,2809.00016 847.43158,2830.87177 847.43158,2857.85255 Z M104.19238,2931.1321 C131.04632,2931.1321 152.81537,2909.2573 152.81537,2882.2801 C152.81537,2855.2911 131.04632,2833.4276 104.19238,2833.4276 C77.338556,2833.4276 55.569276,2855.2911 55.569276,2882.2801 C55.569276,2909.2573 77.338556,2931.1321 104.19238,2931.1321 Z M840.48507,2882.2801 C840.48507,2909.2573 818.71602,2931.1321 791.86174,2931.1321 C765.00861,2931.1321 743.23841,2909.2573 743.23841,2882.2801 C743.23841,2855.2911 765.00861,2833.4276 791.86174,2833.4276 C818.71602,2833.4276 840.48507,2855.2911 840.48507,2882.2801 Z M97.246202,230.30348 C124.09979,230.30348 145.86884,208.43071 145.86884,181.45109 C145.86884,154.47031 124.09979,132.5987 97.246202,132.5987 C70.392382,132.5987 48.623101,154.47031 48.623101,181.45109 C48.623101,208.43071 70.392382,230.30348 97.246202,230.30348 Z " />
    <path stroke="none" fill="#333333" transform="matrix(0.159999948615745, 0, 0, 0.159999951564096, 0, 0)" d="M245.43292,1493.2766 L652.18111,1493.2766 L652.18111,1901.3535 L245.43292,1901.3535 Z " />
    <path stroke="none" fill="#797979" transform="matrix(0.159999948615745, 0, 0, 0.159999951564096, 0, 0)" d="M601.32653,1548.0161 C603.09476,1541.6097 605.25937,1536.9459 607.82381,1534.014 C610.41238,1531.1049 613.5984,1529.6503 617.38187,1529.6503 C621.66399,1529.6503 625.19815,1531.4282 627.98664,1534.9836 C630.79924,1538.562 632.20556,1543.2026 632.20556,1548.9167 C632.20556,1552.8069 631.48401,1556.2698 630.03979,1559.3058 C628.59672,1562.365 626.60445,1564.7314 624.06529,1566.3936 C621.52727,1568.0791 618.75141,1568.9215 615.73889,1568.9215 L615.73889,1561.4065 C619.02487,1561.4065 621.60195,1560.3216 623.46898,1558.1398 C625.36016,1555.9585 626.30573,1552.8877 626.30573,1548.9167 C626.30573,1545.2343 625.52215,1542.3484 623.95383,1540.2704 C622.4108,1538.2272 620.25769,1537.1999 617.49449,1537.1999 C615.27931,1537.1999 613.39964,1538.1693 611.85661,1540.1205 C610.3377,1542.0942 608.94404,1545.4304 607.67444,1550.1287 C606.40486,1554.85 604.99855,1558.5324 603.45552,1561.1758 C601.93662,1563.8538 600.15691,1565.8165 598.11523,1567.0976 C596.0747,1568.3905 593.67226,1569.0368 590.90905,1569.0368 C586.504,1569.0368 582.96868,1567.2478 580.30543,1563.6691 C577.66631,1560.091 576.34733,1555.3001 576.34733,1549.309 C576.34733,1545.4189 577.05737,1541.7827 578.47632,1538.4118 C579.91939,1535.0297 581.88639,1532.4324 584.37499,1530.5853 C586.86477,1528.773 589.69001,1527.8612 592.85076,1527.8612 L592.85076,1535.376 C589.56478,1535.376 586.96357,1536.6341 585.04713,1539.1505 C583.15596,1541.6902 582.20924,1545.0724 582.20924,1549.309 C582.20924,1553.2454 582.98133,1556.2698 584.52436,1558.3707 C586.06854,1560.4719 588.17111,1561.5223 590.83436,1561.5223 C593.49876,1561.5223 595.55193,1560.5525 596.99616,1558.6132 C598.4645,1556.6624 599.90758,1553.13 601.32653,1548.0161 Z " />
    <path stroke="none" fill="#797979" transform="matrix(0.159999948615745, 0, 0, 0.159999951564096, 0, 0)" d="M625.55892,1617.8085 L625.55892,1599.5928 L577.09414,1599.5928 L577.09414,1592.1589 L625.55892,1592.1589 L625.55892,1573.9778 L631.45874,1573.9778 L631.45874,1617.8085 Z " />
    <path stroke="none" fill="#797979" transform="matrix(0.159999948615745, 0, 0, 0.159999951564096, 0, 0)" d="M631.45874,1635.8628 M587.10144,1654.3903 M631.45874,1672.9177 L631.45874,1682.6144 L577.09414,1682.6144 L577.09414,1675.1341 L598.26458,1675.1341 L621.11595,1675.8384 L577.09414,1657.23 L577.09414,1651.5159 L621.0045,1632.9421 L598.26458,1633.6812 L577.09414,1633.6812 L577.09414,1626.2124 L631.45874,1626.2124 Z " />
    <path stroke="none" fill="#797979" transform="matrix(0.159999948615745, 0, 0, 0.159999951564096, 0, 0)" d="M607.63653,1704.4084 L607.63653,1709.8108 C607.68693,1713.2163 608.54535,1715.8828 610.21361,1717.8337 C611.88072,1719.7844 614.13382,1720.7541 616.97171,1720.7541 C623.34375,1720.7541 626.52978,1717.4413 626.52978,1710.8269 C626.52978,1707.7099 625.67151,1705.2282 623.95383,1703.3583 C622.26145,1701.511 620.00837,1700.5877 617.19575,1700.5877 L617.19575,1693.3959 C621.50199,1693.3959 625.07406,1695.0234 627.91195,1698.2905 C630.77398,1701.592 632.20556,1705.7706 632.20556,1710.8269 C632.20556,1716.1714 630.84866,1720.3618 628.136,1723.3976 C625.4222,1726.4336 621.65135,1727.9574 616.82234,1727.9574 C614.45782,1727.9574 612.16797,1727.1494 609.95165,1725.5448 C607.73649,1723.9519 606.08086,1721.7931 604.98591,1719.0341 C604.04033,1722.1511 602.47201,1724.552 600.28098,1726.2375 C598.09109,1727.9574 595.41522,1728.8116 592.25331,1728.8116 C587.3749,1728.8116 583.5041,1727.1494 580.64093,1723.8249 C577.77891,1720.5004 576.34733,1716.1829 576.34733,1710.8613 C576.34733,1705.5513 577.72949,1701.211 580.49156,1697.8634 C583.25478,1694.5501 586.90153,1692.8882 591.43182,1692.8882 L591.43182,1700.1258 C588.5698,1700.1258 586.27994,1701.0956 584.56228,1703.0464 C582.84461,1704.9859 581.98519,1707.5945 581.98519,1710.8613 C581.98519,1714.3475 582.85724,1717.0025 584.59905,1718.8494 C586.34199,1720.685 588.84324,1721.6085 592.10395,1721.6085 C595.26584,1721.6085 597.69242,1720.5926 599.38481,1718.5726 C601.07836,1716.5525 601.94925,1713.6316 601.99866,1709.8108 L601.99866,1704.4084 Z " />
    <path stroke="none" fill="#797979" transform="matrix(0.159999948615745, 0, 0, 0.159999951564096, 0, 0)" d="M577.09414,1775.8287 L577.09414,1738.6929 L582.05987,1738.6929 L602.96951,1758.3055 C606.13142,1761.2144 608.69471,1763.2115 610.66169,1764.3081 C612.65283,1765.4163 614.70598,1765.9818 616.82234,1765.9818 C619.66024,1765.9818 621.98685,1765.0814 623.80448,1763.2924 C625.62211,1761.5031 626.52978,1759.1136 626.52978,1756.1351 C626.52978,1752.5451 625.54743,1749.7632 623.58044,1747.7659 C621.63871,1745.7922 618.92605,1744.7996 615.44016,1744.7996 L615.44016,1737.608 C620.44382,1737.608 624.48925,1739.2818 627.57531,1742.6294 C630.66253,1746.0001 632.20556,1750.5021 632.20556,1756.1351 C632.20556,1761.3991 630.87393,1765.5663 628.21068,1768.6256 C625.57155,1771.6844 622.05003,1773.2196 617.64383,1773.2196 C612.29206,1773.2196 605.92,1769.6646 598.52654,1762.5536 L582.732,1747.3735 L582.732,1775.8287 Z " />
    <path stroke="none" fill="#797979" transform="matrix(0.159999948615745, 0, 0, 0.159999951564096, 0, 0)" d="M601.10248,1816.5774 L601.10248,1792.7976 L577.09414,1792.7976 L577.09414,1785.3174 L631.45874,1785.3174 L631.45874,1820.433 L625.55892,1820.433 L625.55892,1792.7976 L606.96441,1792.7976 L606.96441,1816.5774 Z " />
    <path stroke="none" fill="#797979" transform="matrix(0.159999948615745, 0, 0, 0.159999951564096, 0, 0)" d="M627.57531,1864.1021 M577.09414,1840.6227 L577.09414,1833.0733 L625.78296,1856.4719 L625.78296,1825.8006 L631.45874,1825.8006 L631.45874,1864.1021 Z " />
    <path stroke="none" fill="#333333" transform="matrix(0.159999948615745, 0, 0, 0.159999951564096, 0, 0)" d="M292.47302,919.79876 L602.96493,919.79876 L602.96493,1245.9555 L292.47302,1245.9555 Z " />
    <path stroke="none" fill="#333333" transform="matrix(0.159999948615745, 0, 0, 0.159999951564096, 0, 0)" d="M312.14065,2131.9131 L593.77796,2131.9131 L593.77796,2366.594 L312.14065,2366.594 Z " />
    <path stroke="none" fill="#333333" transform="matrix(0.159999948615745, 0, 0, 0.159999951564096, 0, 0)" d="M340.63447,2513.5782 L535.37366,2513.5782 L535.37366,2703.9896 L340.63447,2703.9896 Z " />
    <path stroke="none" fill="#E4E4E4" transform="matrix(0.159999948615745, 0, 0, 0.159999951564096, 0, 0)" d="M23.077009,2380.6657 L118.89163,2380.6657 L118.89163,2521.3586 L23.077009,2521.3586 Z " />
    <path stroke="none" fill="#3D3D3D" transform="matrix(0.159999948615745, 0, 0, 0.159999951564096, 0, 0)" d="M104.15066,2451.0122 C104.15066,2477.597 89.301481,2499.1489 70.984089,2499.1489 C52.666696,2499.1489 37.817508,2477.597 37.817508,2451.0122 C37.817508,2424.4274 52.666696,2402.8871 70.984089,2402.8871 C89.301481,2402.8871 104.15066,2424.4274 104.15066,2451.0122 Z " />
    <path stroke="none" fill="#E4E4E4" transform="matrix(0.159999948615745, 0, 0, 0.159999951564096, 0, 0)" d="M776.07065,2376.4754 L871.88457,2376.4754 L871.88457,2517.1683 L776.07065,2517.1683 Z " />
    <path stroke="none" fill="#3D3D3D" transform="matrix(0.159999948615745, 0, 0, 0.159999951564096, 0, 0)" d="M857.14476,2446.8217 C857.14476,2473.4066 842.29581,2494.9586 823.97817,2494.9586 C805.66056,2494.9586 790.8116,2473.4066 790.8116,2446.8217 C790.8116,2420.2369 805.66056,2398.6967 823.97817,2398.6967 C842.29581,2398.6967 857.14476,2420.2369 857.14476,2446.8217 Z " />
    <path stroke="none" fill="#333333" transform="matrix(0.159999948615745, 0, 0, 0.159999951564096, 0, 0)" d="M145.44258,510.32056 L413.18113,510.32056 L413.18113,677.73695 L145.44258,677.73695 Z " />
    <path stroke="none" fill="#9F9F9F" transform="matrix(0.159999948615745, 0, 0, 0.159999951564096, 0, 0)" d="M212.37665,677.73695 L346.24591,677.73695 L346.24591,749.4872 L212.37665,749.4872 Z " />
    <path stroke="none" fill="#9F9F9F" transform="matrix(0.159999948615745, 0, 0, 0.159999951564096, 0, 0)" d="M178.91019,462.48745 L212.37665,462.48745 L212.37665,510.32056 L178.91019,510.32056 Z " />
    <path stroke="none" fill="#9F9F9F" transform="matrix(0.159999948615745, 0, 0, 0.159999951564096, 0, 0)" d="M234.688,462.48745 L268.15561,462.48745 L268.15561,510.32056 L234.688,510.32056 Z " />
    <path stroke="none" fill="#9F9F9F" transform="matrix(0.159999948615745, 0, 0, 0.159999951564096, 0, 0)" d="M290.46695,462.48745 L323.93456,462.48745 L323.93456,510.32056 L290.46695,510.32056 Z " />
    <path stroke="none" fill="#9F9F9F" transform="matrix(0.159999948615745, 0, 0, 0.159999951564096, 0, 0)" d="M346.24591,462.48745 L379.71352,462.48745 L379.71352,510.32056 L346.24591,510.32056 Z " />
    <path stroke="none" fill="#999999" transform="matrix(0.159999948615745, 0, 0, 0.159999951564096, 0, 0)" d="M546.32886,2917.13 L671.85448,2917.13 L671.85448,2971.131 L546.32886,2971.131 Z " />
    <path stroke="none" fill="#333333" transform="matrix(0.159999948615745, 0, 0, 0.159999951564096, 0, 0)" d="M579.3633,2917.13 L585.96973,2917.13 L585.96973,2944.1305 L579.3633,2944.1305 Z " />
    <path stroke="none" fill="#333333" transform="matrix(0.159999948615745, 0, 0, 0.159999951564096, 0, 0)" d="M632.21589,2944.1305 L638.82232,2944.1305 L638.82232,2971.131 L632.21589,2971.131 Z " />
    <path stroke="none" fill="#333333" transform="matrix(0.159999948615745, 0, 0, 0.159999951564096, 0, 0)" d="M585.96973,2937.3775 L638.82232,2937.3775 L638.82232,2944.1305 L585.96973,2944.1305 Z " />
    <path stroke="none" fill="#ECECEC" transform="matrix(0.159999948615745, 0, 0, 0.159999951564096, 0, 0)" d="M44.7376,2648.3033 L159.01736,2648.3033 L159.01736,2740.1095 L44.7376,2740.1095 Z " />
    <path stroke="none" fill="#FFCF73" transform="matrix(0.159999948615745, 0, 0, 0.159999951564096, 0, 0)" d="M101.97653,2725.2068 C118.91575,2725.2068 132.64794,2711.4121 132.64794,2694.3968 C132.64794,2677.3817 118.91575,2663.5755 101.97653,2663.5755 C85.037059,2663.5755 71.304989,2677.3817 71.304989,2694.3968 C71.304989,2711.4121 85.037059,2725.2068 101.97653,2725.2068 Z M101.97653,2733.3101 C123.36906,2733.3101 140.71123,2715.8911 140.71123,2694.3968 C140.71123,2672.9027 123.36906,2655.4834 101.97653,2655.4834 C80.584324,2655.4834 63.242385,2672.9027 63.242385,2694.3968 C63.242385,2715.8911 80.584324,2733.3101 101.97653,2733.3101 Z " />
    <path stroke="none" fill="#FFCF73" transform="matrix(0.159999948615745, 0, 0, 0.159999951564096, 0, 0)" d="M100.88284,2697.8367 C102.91199,2697.8367 104.55705,2696.1861 104.55705,2694.1429 C104.55705,2692.111 102.91199,2690.4489 100.88284,2690.4489 C98.853691,2690.4489 97.208746,2692.111 97.208746,2694.1429 C97.208746,2696.1861 98.853691,2697.8367 100.88284,2697.8367 Z M100.88284,2705.9403 C107.36484,2705.9403 112.61954,2700.6537 112.61954,2694.1429 C112.61954,2687.6322 107.36484,2682.3568 100.88284,2682.3568 C94.400956,2682.3568 89.146259,2687.6322 89.146259,2694.1429 C89.146259,2700.6537 94.400956,2705.9403 100.88284,2705.9403 Z " />
    <path stroke="none" fill="#C4C4C4" transform="matrix(0.159999948615745, 0, 0, 0.159999951564096, 0, 0)" d="M623.68614,499.15907 L884.6551,499.15907 L884.6551,836.81317 L623.68614,836.81317 Z " />
    <path stroke="none" fill="#C4C4C4" transform="matrix(0.159999948615745, 0, 0, 0.159999951564096, 0, 0)" d="M588.09873,499.15907 L849.06883,499.15907 L849.06883,520.94409 L588.09873,520.94409 Z " />
    <path stroke="none" fill="#83786B" transform="matrix(0.159999948615745, 0, 0, 0.159999951564096, 0, 0)" d="M623.68614,760.56903 L789.75687,760.56903 L789.75687,771.46155 L623.68614,771.46155 Z " />
    <path stroke="none" fill="#83786B" transform="matrix(0.159999948615745, 0, 0, 0.159999951564096, 0, 0)" d="M623.68614,760.56903 L789.75687,760.56903 L789.75687,771.46155 L623.68614,771.46155 Z " />
    <path stroke="none" fill="#83786B" transform="matrix(0.159999948615745, 0, 0, 0.159999951564096, 0, 0)" d="M623.68614,760.56903 L789.75687,760.56903 L789.75687,771.46155 L623.68614,771.46155 Z " />
    <path stroke="none" fill="#83786B" transform="matrix(0.159999948615745, 0, 0, 0.159999951564096, 0, 0)" d="M623.68614,760.56903 L789.75687,760.56903 L789.75687,771.46155 L623.68614,771.46155 Z " />
    <path stroke="none" fill="#83786B" transform="matrix(0.159999948615745, 0, 0, 0.159999951564096, 0, 0)" d="M623.68614,760.56903 L789.75687,760.56903 L789.75687,771.46155 L623.68614,771.46155 Z " />
    <path stroke="none" fill="#83786B" transform="matrix(0.159999948615745, 0, 0, 0.159999951564096, 0, 0)" d="M623.68614,760.56903 L789.75687,760.56903 L789.75687,771.46155 L623.68614,771.46155 Z " />
    <path stroke="none" fill="#83786B" transform="matrix(0.159999948615745, 0, 0, 0.159999951564096, 0, 0)" d="M623.68614,760.56903 L789.75687,760.56903 L789.75687,771.46155 L623.68614,771.46155 Z " />
    <path stroke="none" fill="#83786B" transform="matrix(0.159999948615745, 0, 0, 0.159999951564096, 0, 0)" d="M623.68614,564.51185 L789.75687,564.51185 L789.75687,575.40437 L623.68614,575.40437 Z " />
    <path stroke="none" fill="#83786B" transform="matrix(0.159999948615745, 0, 0, 0.159999951564096, 0, 0)" d="M623.68614,564.51185 L789.75687,564.51185 L789.75687,575.40437 L623.68614,575.40437 Z " />
    <path stroke="none" fill="#83786B" transform="matrix(0.159999948615745, 0, 0, 0.159999951564096, 0, 0)" d="M623.68614,564.51185 L789.75687,564.51185 L789.75687,575.40437 L623.68614,575.40437 Z " />
    <path stroke="none" fill="#83786B" transform="matrix(0.159999948615745, 0, 0, 0.159999951564096, 0, 0)" d="M623.68614,564.51185 L789.75687,564.51185 L789.75687,575.40437 L623.68614,575.40437 Z " />
    <path stroke="none" fill="#83786B" transform="matrix(0.159999948615745, 0, 0, 0.159999951564096, 0, 0)" d="M623.68614,564.51185 L789.75687,564.51185 L789.75687,575.40437 L623.68614,575.40437 Z " />
    <path stroke="none" fill="#83786B" transform="matrix(0.159999948615745, 0, 0, 0.159999951564096, 0, 0)" d="M623.68614,564.51185 L789.75687,564.51185 L789.75687,575.40437 L623.68614,575.40437 Z " />
    <path stroke="none" fill="#83786B" transform="matrix(0.159999948615745, 0, 0, 0.159999951564096, 0, 0)" d="M623.68614,564.51185 L789.75687,564.51185 L789.75687,575.40437 L623.68614,575.40437 Z " />
    <path stroke="none" fill="#C4C4C4" transform="matrix(0.159999948615745, 0, 0, 0.159999951564096, 0, 0)" d="M588.09873,815.0293 L849.06883,815.0293 L849.06883,836.81434 L588.09873,836.81434 Z " />
    <path stroke="none" fill="#999999" transform="matrix(0.159999948615745, 0, 0, 0.159999951564096, 0, 0)" d="M305.63072,24.30152 C305.63072,10.87982 316.45953,0 329.81716,0 L573.18084,0 C586.53962,0 597.3684,10.87982 597.3684,24.30152 L597.3684,185.06541 C597.3684,198.48594 586.53962,209.36575 573.18084,209.36575 L329.81716,209.36575 C316.45953,209.36575 305.63072,198.48594 305.63072,185.06541 Z " />
    <path stroke="none" fill="#999999" transform="matrix(0.159999948615745, 0, 0, 0.159999951564096, 0, 0)" d="M305.63072,48.85242 L597.3684,48.85242 L597.3684,209.36575 L305.63072,209.36575 Z " />
    <path stroke="none" fill="#545454" transform="matrix(0.159999948615745, 0, 0, 0.159999951564096, 0, 0)" d="M347.30755,153.5353 L375.09246,153.5353 L375.09246,209.3669 L347.30755,209.3669 Z " />
    <path stroke="none" fill="#545454" transform="matrix(0.159999948615745, 0, 0, 0.159999951564096, 0, 0)" d="M527.90668,153.5353 L555.6916,153.5353 L555.6916,209.3669 L527.90668,209.3669 Z " />
    <path stroke="none" fill="#FFFFFF" transform="matrix(0.159999948615745, 0, 0, 0.159999951564096, 0, 0)" d="M416.17642,231.04921 L416.17642,267.99671 C416.14992,273.12206 414.46105,277.31355 411.10957,280.57345 C407.78338,283.83218 403.26114,285.66068 397.54399,286.05894 L395.55631,286.17443 C389.34511,286.17443 384.39546,284.56988 380.70505,281.35963 C377.01465,278.1505 375.14416,273.73392 375.09246,268.11103 L375.09246,231.08966 L382.49855,231.08966 L382.49855,267.8871 C382.49855,271.81884 383.62912,274.87906 385.88909,277.0677 C388.15023,279.2333 391.37301,280.31492 395.55631,280.31492 C399.79246,280.31492 403.0279,279.22981 405.2626,277.0677 C407.52257,274.90329 408.65313,271.85577 408.65313,267.92519 L408.65313,231.08966 Z " />
    <path stroke="none" fill="#FFFFFF" transform="matrix(0.159999948615745, 0, 0, 0.159999951564096, 0, 0)" d="M444.7093,261.16641 C438.2913,259.40023 433.61395,257.2358 430.67725,254.67315 C427.76696,252.08506 426.31127,248.9002 426.31127,245.11851 C426.31127,240.83932 428.09097,237.30699 431.65154,234.52038 C435.23741,231.70836 439.88948,230.30233 445.60662,230.30233 C449.50385,230.30233 452.97366,231.01804 456.01377,232.46793 C459.08031,233.91086 461.44483,235.90097 463.10736,238.43826 C464.79745,240.97669 465.64193,243.75062 465.64193,246.76117 L458.11864,246.76117 C458.11864,243.47702 457.02714,240.90164 454.84415,239.03621 C452.66116,237.14537 449.58199,236.19996 445.60662,236.19996 C441.91622,236.19996 439.03123,236.98493 436.95278,238.55023 C434.89961,240.0936 433.87361,242.24532 433.87361,245.00655 C433.87361,247.22177 434.84791,249.09989 436.79652,250.64212 C438.77157,252.1601 442.1104,253.5534 446.81417,254.82203 C451.54438,256.09067 455.23364,257.4967 457.88425,259.03891 C460.5613,260.5569 462.53633,262.33574 463.80936,264.37664 C465.10881,266.41641 465.75797,268.81746 465.75797,271.57869 C465.75797,275.98256 463.96561,279.51605 460.37977,282.178 C456.79276,284.81571 451.99822,286.13398 445.99613,286.13398 C442.09775,286.13398 438.4602,285.42982 435.08115,284.00651 C431.70326,282.56357 429.09171,280.59768 427.24651,278.11004 C425.42771,275.6224 424.51775,272.79769 424.51775,269.63821 L432.04105,269.63821 C432.04105,272.92237 433.30144,275.52199 435.82223,277.43819 C438.36944,279.32906 441.75997,280.27448 445.99613,280.27448 C449.94619,280.27448 452.97366,279.50104 455.07853,277.96112 C457.1834,276.41777 458.23582,274.31567 458.23582,271.65373 C458.23582,268.99177 457.26153,266.93932 455.31177,265.49523 C453.36316,264.02804 449.82901,262.5851 444.7093,261.16641 Z " />
    <path stroke="none" fill="#FFFFFF" transform="matrix(0.159999948615745, 0, 0, 0.159999951564096, 0, 0)" d="M475.38613,285.38712 L475.38613,231.04921 L493.94043,231.04921 C500.09992,231.04921 504.72558,232.2682 507.81738,234.70624 C510.93562,237.14537 512.49473,240.75273 512.49473,245.52947 C512.49473,248.06674 511.74103,250.31891 510.23362,252.28476 C508.72735,254.22526 506.67419,255.73052 504.07526,256.80062 C507.1418,257.6202 509.55804,259.18898 511.3251,261.50231 C513.11861,263.7914 514.01479,266.52839 514.01479,269.71324 C514.01479,274.58925 512.3649,278.42057 509.06514,281.20719 C505.76422,283.99379 501.09949,285.38712 495.07099,285.38712 Z M502.55521,259.97278 L502.55521,279.52876 L514.91211,279.52876 C518.39456,279.52876 521.13593,278.67452 523.13626,276.95336 C525.16299,275.21146 526.1775,272.82306 526.1775,269.78714 C526.1775,263.24424 522.46068,259.97278 515.0293,259.97278 Z M515.0293,254.22526 L526.33376,254.22526 C529.60825,254.22526 532.2198,253.44029 534.16842,251.87382 C536.14345,250.30618 537.1304,248.17871 537.1304,245.49252 C537.1304,242.5062 536.22159,240.34176 534.40281,238.99811 C532.58287,237.63019 529.81623,236.94566 526.09938,236.94566 L515.0293,236.94566 Z " />
    <path stroke="none" fill="#DE9813" transform="matrix(0.159999948615745, 0, 0, 0.159999951564096, 0, 0)" d="M97.246202,226.93856 C122.24999,226.93856 142.51967,206.5722 142.51967,181.45109 C142.51967,156.32881 122.24999,135.96364 97.246202,135.96364 C72.241953,135.96364 51.972159,156.32881 51.972159,181.45109 C51.972159,206.5722 72.241953,226.93856 97.246202,226.93856 Z M97.246202,251.23891 C135.60876,251.23891 166.70725,219.99393 166.70725,181.45109 C166.70725,142.90714 135.60876,111.66213 97.246202,111.66213 C58.883634,111.66213 27.784581,142.90714 27.784581,181.45109 C27.784581,219.99393 58.883634,251.23891 97.246202,251.23891 Z " />
    <path stroke="none" fill="#DE9813" transform="matrix(0.159999948615745, 0, 0, 0.159999951564096, 0, 0)" d="M798.80826,226.93856 C823.81273,226.93856 844.08241,206.5722 844.08241,181.45109 C844.08241,156.32881 823.81273,135.96364 798.80826,135.96364 C773.80377,135.96364 753.53409,156.32881 753.53409,181.45109 C753.53409,206.5722 773.80377,226.93856 798.80826,226.93856 Z M798.80826,251.23891 C837.17152,251.23891 868.26999,219.99393 868.26999,181.45109 C868.26999,142.90714 837.17152,111.66213 798.80826,111.66213 C760.44615,111.66213 729.34652,142.90714 729.34652,181.45109 C729.34652,219.99393 760.44615,251.23891 798.80826,251.23891 Z " />
    <path stroke="none" fill="#DE9813" transform="matrix(0.159999948615745, 0, 0, 0.159999951564096, 0, 0)" d="M104.19215,2927.7617 C129.19651,2927.7617 149.46619,2907.3987 149.46619,2882.2801 C149.46619,2857.1497 129.19651,2836.7869 104.19215,2836.7869 C79.188012,2836.7869 58.918103,2857.1497 58.918103,2882.2801 C58.918103,2907.3987 79.188012,2927.7617 104.19215,2927.7617 Z M104.19215,2952.0609 C142.55414,2952.0609 173.65376,2920.8238 173.65376,2882.2801 C173.65376,2843.736 142.55414,2812.4876 104.19215,2812.4876 C65.829578,2812.4876 34.730639,2843.736 34.730639,2882.2801 C34.730639,2920.8238 65.829578,2952.0609 104.19215,2952.0609 Z " />
    <path stroke="none" fill="#DE9813" transform="matrix(0.159999948615745, 0, 0, 0.159999951564096, 0, 0)" d="M791.86289,2927.7617 C816.86622,2927.7617 837.13705,2907.3987 837.13705,2882.2801 C837.13705,2857.1497 816.86622,2836.7869 791.86289,2836.7869 C766.85841,2836.7869 746.58873,2857.1497 746.58873,2882.2801 C746.58873,2907.3987 766.85841,2927.7617 791.86289,2927.7617 Z M791.86289,2952.0609 C830.225,2952.0609 861.32462,2920.8238 861.32462,2882.2801 C861.32462,2843.736 830.225,2812.4876 791.86289,2812.4876 C753.49963,2812.4876 722.40116,2843.736 722.40116,2882.2801 C722.40116,2920.8238 753.49963,2952.0609 791.86289,2952.0609 Z " />
    <path stroke="none" fill="#55ADF7" transform="matrix(0.159999948615745, 0, 0, 0.159999951564096, 0, 0)" d="M810.16673,928.83276 L879.55722,928.83276 L879.55722,2337.0772 L810.16673,2337.0772 Z " />
    <path stroke="none" fill="#55ADF7" transform="matrix(0.159999948615745, 0, 0, 0.159999951564096, 0, 0)" d="M11.358305,528.71178 L80.749082,528.71178 L80.749082,2337.0772 L11.358305,2337.0772 Z " />
    <text stroke="none" fill="#FFFFFF" transform="matrix(0.159999948615745, 0, 0, 0.159999951564096, 0, 0)" x="98.790176" y="806.52435" font-family="OCRA" font-size="48.61104202">AREF</text>
    <text stroke="none" fill="#FFFFFF" transform="matrix(0.159999948615745, 0, 0, 0.159999951564096, 0, 0)" x="95.21917" y="905.82147" font-family="OCRA" font-size="48.61104202">GND</text>
    <text stroke="none" fill="#FFFFFF" transform="matrix(0.159999948615745, 0, 0, 0.159999951564096, 0, 0)" x="98.238785" y="1006.4756" font-family="OCRA" font-size="48.61104202">A0</text>
    <text stroke="none" fill="#FFFFFF" transform="matrix(0.159999948615745, 0, 0, 0.159999951564096, 0, 0)" x="98.238785" y="1106.0004" font-family="OCRA" font-size="48.61104202">A1</text>
    <text stroke="none" fill="#FFFFFF" transform="matrix(0.159999948615745, 0, 0, 0.159999951564096, 0, 0)" x="98.238785" y="1206.0004" font-family="OCRA" font-size="48.61104202">A2</text>
    <text stroke="none" fill="#FFFFFF" transform="matrix(0.159999948615745, 0, 0, 0.159999951564096, 0, 0)" x="98.238785" y="1306.0004" font-family="OCRA" font-size="48.61104202">A3</text>
    <text stroke="none" fill="#FFFFFF" transform="matrix(0.159999948615745, 0, 0, 0.159999951564096, 0, 0)" x="98.238785" y="1406.0005" font-family="OCRA" font-size="48.61104202">A4</text>
    <text stroke="none" fill="#FFFFFF" transform="matrix(0.159999948615745, 0, 0, 0.159999951564096, 0, 0)" x="98.238785" y="1506.0005" font-family="OCRA" font-size="48.61104202">A5</text>
    <text stroke="none" fill="#FFFFFF" transform="matrix(0.159999948615745, 0, 0, 0.159999951564096, 0, 0)" x="98.238785" y="1606.0005" font-family="OCRA" font-size="48.61104202">SCK</text>
    <text stroke="none" fill="#FFFFFF" transform="matrix(0.159999948615745, 0, 0, 0.159999951564096, 0, 0)" x="98.238785" y="1706.0005" font-family="OCRA" font-size="48.61104202">MOSI</text>
    <text stroke="none" fill="#FFFFFF" transform="matrix(0.159999948615745, 0, 0, 0.159999951564096, 0, 0)" x="98.238785" y="1806.0005" font-family="OCRA" font-size="48.61104202">MISO</text>
    <text stroke="none" fill="#FFFFFF" transform="matrix(0.159999948615745, 0, 0, 0.159999951564096, 0, 0)" x="98.238785" y="1906.0006" font-family="OCRA" font-size="48.61104202">DO0</text>
    <text stroke="none" fill="#FFFFFF" transform="matrix(0.159999948615745, 0, 0, 0.159999951564096, 0, 0)" x="98.238785" y="2006.0006" font-family="OCRA" font-size="48.61104202">DO1</text>
    <text stroke="none" fill="#FFFFFF" transform="matrix(0.159999948615745, 0, 0, 0.159999951564096, 0, 0)" x="98.238785" y="2106.0007" font-family="OCRA" font-size="48.61104202">DO2</text>
    <text stroke="none" fill="#FFFFFF" transform="matrix(0.159999948615745, 0, 0, 0.159999951564096, 0, 0)" x="98.238785" y="2206.0007" font-family="OCRA" font-size="48.61104202">DO3</text>
    <text stroke="none" fill="#FFFFFF" transform="matrix(0.159999948615745, 0, 0, 0.159999951564096, 0, 0)" x="98.238785" y="2306.0007" font-family="OCRA" font-size="48.61104202">DO4</text>
    <text stroke="none" fill="#FFFFFF" transform="matrix(9.79684768430478E-18, -0.159999951564096, 0.159999948615745, 9.79684786483324E-18, 0, 0)" x="-2509.8743" y="192.06726" font-family="OCRA" font-size="48.61104202">RST</text>
    <text stroke="none" fill="#FFFFFF" transform="matrix(9.79684768430478E-18, 0.159999951564096, -0.159999948615745, 9.79684786483324E-18, 0, 0)" x="2375.332" y="-707.74841" font-family="OCRA" font-size="48.61104202">BOOT</text>
    <text stroke="none" fill="#FFFFFF" transform="matrix(0.159999948615745, 0, 0, 0.159999951564096, 0, 0)" x="698.50714" y="2306.0007" font-family="OCRA" font-size="48.61104202">DO5</text>
    <text stroke="none" fill="#FFFFFF" transform="matrix(0.159999948615745, 0, 0, 0.159999951564096, 0, 0)" x="698.50714" y="2206.0007" font-family="OCRA" font-size="48.61104202">DO6</text>
    <text stroke="none" fill="#FFFFFF" transform="matrix(0.159999948615745, 0, 0, 0.159999951564096, 0, 0)" x="698.50714" y="2106.0007" font-family="OCRA" font-size="48.61104202">DO7</text>
    <text stroke="none" fill="#FFFFFF" transform="matrix(0.159999948615745, 0, 0, 0.159999951564096, 0, 0)" x="698.50714" y="2006.0006" font-family="OCRA" font-size="48.61104202">DO8</text>
    <text stroke="none" fill="#FFFFFF" transform="matrix(0.159999948615745, 0, 0, 0.159999951564096, 0, 0)" x="698.50714" y="1906.0006" font-family="OCRA" font-size="48.61104202">DO9</text>
    <text stroke="none" fill="#FFFFFF" transform="matrix(0.159999948615745, 0, 0, 0.159999951564096, 0, 0)" x="698.50714" y="1806.0005" font-family="OCRA" font-size="48.61104202">D10</text>
    <text stroke="none" fill="#FFFFFF" transform="matrix(0.159999948615745, 0, 0, 0.159999951564096, 0, 0)" x="698.50714" y="1706.0005" font-family="OCRA" font-size="48.61104202">D11</text>
    <text stroke="none" fill="#FFFFFF" transform="matrix(0.159999948615745, 0, 0, 0.159999951564096, 0, 0)" x="698.50714" y="1606.0005" font-family="OCRA" font-size="48.61104202">D12</text>
    <text stroke="none" fill="#FFFFFF" transform="matrix(0.159999948615745, 0, 0, 0.159999951564096, 0, 0)" x="698.50714" y="1506.0005" font-family="OCRA" font-size="48.61104202">D13</text>
    <text stroke="none" fill="#FFFFFF" transform="matrix(0.159999948615745, 0, 0, 0.159999951564096, 0, 0)" x="698.50714" y="1406.0005" font-family="OCRA" font-size="48.61104202">D14</text>
    <text stroke="none" fill="#FFFFFF" transform="matrix(0.159999948615745, 0, 0, 0.159999951564096, 0, 0)" x="698.50714" y="1306.0004" font-family="OCRA" font-size="48.61104202">D15</text>
    <text stroke="none" fill="#FFFFFF" transform="matrix(0.159999948615745, 0, 0, 0.159999951564096, 0, 0)" x="698.50714" y="1206.0004" font-family="OCRA" font-size="48.61104202">5V</text>
    <text stroke="none" fill="#FFFFFF" transform="matrix(0.159999948615745, 0, 0, 0.159999951564096, 0, 0)" x="698.50714" y="1106.0004" font-family="OCRA" font-size="48.61104202">EN</text>
    <text stroke="none" fill="#FFFFFF" transform="matrix(0.159999948615745, 0, 0, 0.159999951564096, 0, 0)" x="698.50714" y="1006.0003" font-family="OCRA" font-size="48.61104202">BAT</text>
    <path stroke="none" fill="#000000" transform="matrix(0.159999948615745, 0, 0, 0.159999951564096, 0, 0)" d="M31.257953,571.71964 L59.459371,571.71964 L59.459371,600.05335 L31.257953,600.05335 Z " />
    <path stroke="none" fill="#000000" transform="matrix(0.159999948615745, 0, 0, 0.159999951564096, 0, 0)" d="M31.257953,671.10979 L59.459371,671.10979 L59.459371,699.44352 L31.257953,699.44352 Z " />
    <path stroke="none" fill="#000000" transform="matrix(0.159999948615745, 0, 0, 0.159999951564096, 0, 0)" d="M31.257953,771.92098 L59.459371,771.92098 L59.459371,800.25467 L31.257953,800.25467 Z " />
    <path stroke="none" fill="#000000" transform="matrix(0.159999948615745, 0, 0, 0.159999951564096, 0, 0)" d="M31.257953,872.73217 L59.459371,872.73217 L59.459371,901.06699 L31.257953,901.06699 Z " />
    <path stroke="none" fill="#000000" transform="matrix(0.159999948615745, 0, 0, 0.159999951564096, 0, 0)" d="M31.257953,974.8593 L59.459371,974.8593 L59.459371,1003.1941 L31.257953,1003.1941 Z " />
    <path stroke="none" fill="#000000" transform="matrix(0.159999948615745, 0, 0, 0.159999951564096, 0, 0)" d="M31.257953,1074.3545 L59.459371,1074.3545 L59.459371,1102.6882 L31.257953,1102.6882 Z " />
    <path stroke="none" fill="#000000" transform="matrix(0.159999948615745, 0, 0, 0.159999951564096, 0, 0)" d="M31.257953,1174.293 L59.459371,1174.293 L59.459371,1202.6209 L31.257953,1202.6209 Z " />
    <path stroke="none" fill="#000000" transform="matrix(0.159999948615745, 0, 0, 0.159999951564096, 0, 0)" d="M31.257953,1274.2257 L59.459371,1274.2257 L59.459371,1302.5536 L31.257953,1302.5536 Z " />
    <path stroke="none" fill="#000000" transform="matrix(0.159999948615745, 0, 0, 0.159999951564096, 0, 0)" d="M31.257953,1374.1584 L59.459371,1374.1584 L59.459371,1402.4862 L31.257953,1402.4862 Z " />
    <path stroke="none" fill="#000000" transform="matrix(0.159999948615745, 0, 0, 0.159999951564096, 0, 0)" d="M31.257953,1474.5297 L59.459371,1474.5297 L59.459371,1502.8693 L31.257953,1502.8693 Z " />
    <path stroke="none" fill="#000000" transform="matrix(0.159999948615745, 0, 0, 0.159999951564096, 0, 0)" d="M31.257953,1575.3396 L59.459371,1575.3396 L59.459371,1603.6794 L31.257953,1603.6794 Z " />
    <path stroke="none" fill="#000000" transform="matrix(0.159999948615745, 0, 0, 0.159999951564096, 0, 0)" d="M31.257953,1673.9566 L59.459371,1673.9566 L59.459371,1702.2959 L31.257953,1702.2959 Z " />
    <path stroke="none" fill="#000000" transform="matrix(0.159999948615745, 0, 0, 0.159999951564096, 0, 0)" d="M31.257953,1774.328 L59.459371,1774.328 L59.459371,1802.6674 L31.257953,1802.6674 Z " />
    <path stroke="none" fill="#000000" transform="matrix(0.159999948615745, 0, 0, 0.159999951564096, 0, 0)" d="M31.257953,1873.8221 L59.459371,1873.8221 L59.459371,1902.1614 L31.257953,1902.1614 Z " />
    <path stroke="none" fill="#000000" transform="matrix(0.159999948615745, 0, 0, 0.159999951564096, 0, 0)" d="M31.257953,1973.3275 L59.459371,1973.3275 L59.459371,2001.6556 L31.257953,2001.6556 Z " />
    <path stroke="none" fill="#000000" transform="matrix(0.159999948615745, 0, 0, 0.159999951564096, 0, 0)" d="M31.257953,2071.9443 L59.459371,2071.9443 L59.459371,2100.2723 L31.257953,2100.2723 Z " />
    <path stroke="none" fill="#000000" transform="matrix(0.159999948615745, 0, 0, 0.159999951564096, 0, 0)" d="M31.257953,2171.4382 L59.459371,2171.4382 L59.459371,2199.7662 L31.257953,2199.7662 Z " />
    <path stroke="none" fill="#000000" transform="matrix(0.159999948615745, 0, 0, 0.159999951564096, 0, 0)" d="M31.257953,2271.3709 L59.459371,2271.3709 L59.459371,2299.6989 L31.257953,2299.6989 Z " />
    <path stroke="none" fill="#000000" transform="matrix(0.159999948615745, 0, 0, 0.159999951564096, 0, 0)" d="M830.62713,2271.3709 L858.82796,2271.3709 L858.82796,2299.6989 L830.62713,2299.6989 Z " />
    <path stroke="none" fill="#000000" transform="matrix(0.159999948615745, 0, 0, 0.159999951564096, 0, 0)" d="M830.62713,2171.4382 L858.82796,2171.4382 L858.82796,2199.7662 L830.62713,2199.7662 Z " />
    <path stroke="none" fill="#000000" transform="matrix(0.159999948615745, 0, 0, 0.159999951564096, 0, 0)" d="M830.62713,2071.9443 L858.82796,2071.9443 L858.82796,2100.2723 L830.62713,2100.2723 Z " />
    <path stroke="none" fill="#000000" transform="matrix(0.159999948615745, 0, 0, 0.159999951564096, 0, 0)" d="M830.62713,1973.3275 L858.82796,1973.3275 L858.82796,2001.6556 L830.62713,2001.6556 Z " />
    <path stroke="none" fill="#000000" transform="matrix(0.159999948615745, 0, 0, 0.159999951564096, 0, 0)" d="M830.62713,1873.8221 L858.82796,1873.8221 L858.82796,1902.1614 L830.62713,1902.1614 Z " />
    <path stroke="none" fill="#000000" transform="matrix(0.159999948615745, 0, 0, 0.159999951564096, 0, 0)" d="M830.62713,1774.328 L858.82796,1774.328 L858.82796,1802.6674 L830.62713,1802.6674 Z " />
    <path stroke="none" fill="#000000" transform="matrix(0.159999948615745, 0, 0, 0.159999951564096, 0, 0)" d="M830.62713,1673.9566 L858.82796,1673.9566 L858.82796,1702.2959 L830.62713,1702.2959 Z " />
    <path stroke="none" fill="#000000" transform="matrix(0.159999948615745, 0, 0, 0.159999951564096, 0, 0)" d="M830.62713,1575.3396 L858.82796,1575.3396 L858.82796,1603.6794 L830.62713,1603.6794 Z " />
    <path stroke="none" fill="#000000" transform="matrix(0.159999948615745, 0, 0, 0.159999951564096, 0, 0)" d="M830.62713,1474.5297 L858.82796,1474.5297 L858.82796,1502.8693 L830.62713,1502.8693 Z " />
    <path stroke="none" fill="#000000" transform="matrix(0.159999948615745, 0, 0, 0.159999951564096, 0, 0)" d="M830.62713,1374.1584 L858.82796,1374.1584 L858.82796,1402.4862 L830.62713,1402.4862 Z " />
    <path stroke="none" fill="#000000" transform="matrix(0.159999948615745, 0, 0, 0.159999951564096, 0, 0)" d="M830.62713,1274.2257 L858.82796,1274.2257 L858.82796,1302.5536 L830.62713,1302.5536 Z " />
    <path stroke="none" fill="#000000" transform="matrix(0.159999948615745, 0, 0, 0.159999951564096, 0, 0)" d="M830.62713,1174.293 L858.82796,1174.293 L858.82796,1202.6209 L830.62713,1202.6209 Z " />
    <path stroke="none" fill="#000000" transform="matrix(0.159999948615745, 0, 0, 0.159999951564096, 0, 0)" d="M830.62713,1074.3545 L858.82796,1074.3545 L858.82796,1102.6882 L830.62713,1102.6882 Z " />
    <path stroke="none" fill="#000000" transform="matrix(0.159999948615745, 0, 0, 0.159999951564096, 0, 0)" d="M830.62713,974.8593 L858.82796,974.8593 L858.82796,1003.1941 L830.62713,1003.1941 Z " />
</svg>
