<?xml version="1.0" encoding="UTF-8" standalone="no"?>
<svg width="90px" height="52px" viewBox="0 0 90 52" version="1.1" xmlns="http://www.w3.org/2000/svg" xmlns:xlink="http://www.w3.org/1999/xlink">
    <defs>
    </defs>
    <ellipse stroke="none" fill="none" transform="matrix(1.25, 0, 0, 1.25000006009616, 0, -21.8000035480771)" cx="4.7379999" cy="7.2340002" rx="1.387" ry="1.387" />
    <ellipse stroke="none" fill="none" transform="matrix(1.25, 0, 0, 1.25000006009616, 0, -21.8000035480771)" cx="4.7379999" cy="14.538" rx="1.387" ry="1.387" />
    <ellipse stroke="none" fill="none" transform="matrix(1.25, 0, 0, 1.25000006009616, 0, -21.8000035480771)" cx="4.7379999" cy="21.841" rx="1.387" ry="1.387" />
    <ellipse stroke="none" fill="none" transform="matrix(1.25, 0, 0, 1.25000006009616, 0, -21.8000035480771)" cx="4.7379999" cy="29.145" rx="1.387" ry="1.387" />
    <ellipse stroke="none" fill="none" transform="matrix(1.25, 0, 0, 1.25000006009616, 0, -21.8000035480771)" cx="4.7379999" cy="36.446999" rx="1.387" ry="1.387" />
    <ellipse stroke="none" fill="none" transform="matrix(1.25, 0, 0, 1.25000006009616, 0, -21.8000035480771)" cx="4.7379999" cy="43.75" rx="1.388" ry="1.388" />
    <ellipse stroke="none" fill="none" transform="matrix(1.25, 0, 0, 1.25000006009616, 0, -21.8000035480771)" cx="4.7379999" cy="50.953999" rx="1.388" ry="1.388" />
    <rect stroke="none" fill="#003380" transform="matrix(1.25, 0, 0, 1.25000006009616, 0, 0)" x="0" y="-7.1054274E-15" width="72" height="41.599998" />
    <rect stroke="none" fill="#000000" transform="matrix(1.25, 0, 0, 1.25000006009616, 0, 0)" x="1.1112442" y="6.0798788" width="14.549495" height="28.849445" />
    <path stroke="none" fill="#9A916C" transform="matrix(1.25, 0, 0, 1.25000006009616, -0.055280175, -24.4525024256011)" d="M4.738,26.733 C3.407,26.733 2.329,27.811 2.329,29.143 C2.329,30.473 3.407,31.553 4.738,31.553 C6.068,31.553 7.148,30.473 7.148,29.143 C7.148,27.812 6.068,26.733 4.738,26.733 Z M4.738,30.532 C3.972,30.532 3.351,29.91 3.351,29.143 C3.351,28.377 3.972,27.756 4.738,27.756 C5.505,27.756 6.126,28.377 6.126,29.143 C6.125,29.91 5.503,30.532 4.738,30.532 Z " />
    <ellipse stroke="none" fill="#FFFFFF" transform="matrix(1.25, 0, 0, 1.25000006009616, -0.055280175, -24.4525024256011)" cx="4.7379999" cy="29.139" rx="1.387" ry="1.387" />
    <path stroke="none" fill="#9A916C" transform="matrix(1.25, 0, 0, 1.25000006009616, -0.055280175, -24.4525024256011)" d="M4.738,34.038 C3.407,34.038 2.329,35.116 2.329,36.448 C2.329,37.776 3.407,38.856 4.738,38.856 C6.068,38.856 7.148,37.776 7.148,36.448 C7.148,35.116 6.068,34.038 4.738,34.038 Z M4.738,37.834 C3.972,37.834 3.351,37.213 3.351,36.447 C3.351,35.678 3.972,35.057 4.738,35.057 C5.505,35.057 6.126,35.678 6.126,36.447 C6.125,37.213 5.503,37.834 4.738,37.834 Z " />
    <ellipse stroke="none" fill="#FFFFFF" transform="matrix(1.25, 0, 0, 1.25000006009616, -0.055280175, -24.4525024256011)" cx="4.7379999" cy="36.441002" rx="1.387" ry="1.387" />
    <path stroke="none" fill="#9A916C" transform="matrix(1.25, 0, 0, 1.25000006009616, -0.055280175, -24.4525024256011)" d="M4.738,41.34 C3.407,41.34 2.329,42.418 2.329,43.75 C2.329,45.08 3.407,46.16 4.738,46.16 C6.068,46.16 7.148,45.08 7.148,43.75 C7.148,42.418 6.068,41.34 4.738,41.34 Z M4.738,45.138 C3.972,45.138 3.351,44.517 3.351,43.75 C3.351,42.981 3.972,42.36 4.738,42.36 C5.505,42.36 6.126,42.981 6.126,43.75 C6.126,44.517 5.503,45.138 4.738,45.138 Z " />
    <ellipse stroke="none" fill="#FFFFFF" transform="matrix(1.25, 0, 0, 1.25000006009616, -0.055280175, -24.4525024256011)" cx="4.7379999" cy="43.743999" rx="1.388" ry="1.388" />
    <path stroke="none" fill="#9A916C" transform="matrix(1.25, 0, 0, 1.25000006009616, -0.055280175, -24.4525024256011)" d="M4.738,48.542 C3.407,48.542 2.329,49.62 2.329,50.952 C2.329,52.282 3.407,53.362 4.738,53.362 C6.068,53.362 7.148,52.282 7.148,50.952 C7.148,49.62 6.068,48.542 4.738,48.542 Z M4.738,52.338 C3.972,52.338 3.351,51.717 3.351,50.951 C3.351,50.182 3.972,49.561 4.738,49.561 C5.505,49.561 6.126,50.182 6.126,50.951 C6.125,51.717 5.503,52.338 4.738,52.338 Z " />
    <ellipse stroke="none" fill="#FFFFFF" transform="matrix(1.25, 0, 0, 1.25000006009616, -0.055280175, -24.4525024256011)" cx="4.7379999" cy="50.948002" rx="1.388" ry="1.388" />
    <rect stroke="none" fill="#9A916C" transform="matrix(1.25, 0, 0, 1.25000006009616, 0, 0)" x="9.6000004" y="28.98" width="4.8200002" height="4.8200002" />
    <path stroke="none" fill="#9A916C" transform="matrix(1.25, 0, 0, 1.25000006009616, 0, 0)" d="M12.009,7.170999 C10.678,7.170999 9.6,8.248999 9.6,9.580999 C9.6,10.910999 10.678,11.990999 12.009,11.990999 C13.339,11.990999 14.419,10.910999 14.419,9.580999 C14.419,8.249999 13.339,7.170999 12.009,7.170999 Z M12.009,10.969999 C11.243,10.969999 10.622,10.347999 10.622,9.580999 C10.622,8.814999 11.243,8.193999 12.009,8.193999 C12.776,8.193999 13.397,8.814999 13.397,9.580999 C13.396,10.347999 12.774,10.969999 12.009,10.969999 Z " />
    <rect stroke="none" fill="#9A916C" transform="matrix(1.25, 0, 0, 1.25000006009616, 0, 0)" x="9.6000004" y="7.1799989" width="4.8200002" height="4.8200002" />
    <ellipse stroke="none" fill="#FFFFFF" transform="matrix(1.25, 0, 0, 1.25000006009616, 9.08875, -24.4525024256011)" cx="4.7379999" cy="29.139" rx="1.387" ry="1.387" />
    <path stroke="none" fill="#9A916C" transform="matrix(1.25, 0, 0, 1.25000006009616, 9.08875, -24.4525024256011)" d="M4.738,34.038 C3.407,34.038 2.329,35.116 2.329,36.448 C2.329,37.776 3.407,38.856 4.738,38.856 C6.068,38.856 7.148,37.776 7.148,36.448 C7.148,35.116 6.068,34.038 4.738,34.038 Z M4.738,37.834 C3.972,37.834 3.351,37.213 3.351,36.447 C3.351,35.678 3.972,35.057 4.738,35.057 C5.505,35.057 6.126,35.678 6.126,36.447 C6.125,37.213 5.503,37.834 4.738,37.834 Z " />
    <ellipse stroke="none" fill="#FFFFFF" transform="matrix(1.25, 0, 0, 1.25000006009616, 9.08875, -24.4525024256011)" cx="4.7379999" cy="36.441002" rx="1.387" ry="1.387" />
    <path stroke="none" fill="#9A916C" transform="matrix(1.25, 0, 0, 1.25000006009616, 9.08875, -24.4525024256011)" d="M4.738,41.34 C3.407,41.34 2.329,42.418 2.329,43.75 C2.329,45.08 3.407,46.16 4.738,46.16 C6.068,46.16 7.148,45.08 7.148,43.75 C7.148,42.418 6.068,41.34 4.738,41.34 Z M4.738,45.138 C3.972,45.138 3.351,44.517 3.351,43.75 C3.351,42.981 3.972,42.36 4.738,42.36 C5.505,42.36 6.126,42.981 6.126,43.75 C6.126,44.517 5.503,45.138 4.738,45.138 Z " />
    <ellipse stroke="none" fill="#FFFFFF" transform="matrix(1.25, 0, 0, 1.25000006009616, 9.08875, -24.4525024256011)" cx="4.7379999" cy="43.743999" rx="1.388" ry="1.388" />
    <path stroke="none" fill="#9A916C" transform="matrix(1.25, 0, 0, 1.25000006009616, 9.08875, -24.4525024256011)" d="M4.738,48.542 C3.407,48.542 2.329,49.62 2.329,50.952 C2.329,52.282 3.407,53.362 4.738,53.362 C6.068,53.362 7.148,52.282 7.148,50.952 C7.148,49.62 6.068,48.542 4.738,48.542 Z M4.738,52.338 C3.972,52.338 3.351,51.717 3.351,50.951 C3.351,50.182 3.972,49.561 4.738,49.561 C5.505,49.561 6.126,50.182 6.126,50.951 C6.125,51.717 5.503,52.338 4.738,52.338 Z " />
    <ellipse stroke="none" fill="#FFFFFF" transform="matrix(1.25, 0, 0, 1.25000006009616, 9.08875, -24.4525024256011)" cx="4.7379999" cy="50.948002" rx="1.388" ry="1.388" />
    <path stroke="none" fill="#000000" transform="matrix(1, 0, 0, 1.00000004807693, 0, -1.25000006009616E-06)" d="M56.717457,6.0068966 L84.744504,6.0068966 C85.662391,6.1114966 86.437783,6.4773355 86.73459,7.720582 L86.73459,10.816272 C86.598054,12.048266 85.940708,12.318764 85.131465,12.308836 L73.080388,12.308836 L73.080388,14.409483 L85.186746,14.409483 C86.061814,14.424743 86.617454,14.873878 86.56875,16.067888 L86.56875,18.942457 C86.468035,20.346613 85.850924,20.588879 85.131465,20.600862 L72.914547,20.600862 L72.914547,22.369828 L85.076185,22.369828 C85.983643,22.422208 86.361016,22.746297 86.45819,23.862392 L86.45819,27.179203 C86.41907,28.0618 85.997425,28.62562 85.020905,28.727047 L73.080388,28.727047 L73.080388,30.882974 L84.855065,30.882974 C85.72544,30.930424 86.252442,31.466966 86.237069,32.7625 L86.237069,44.838596 C86.135247,45.92165 85.688456,46.751728 84.034526,46.69657 L84.034526,33.260022 L71.643103,33.260022 C70.910992,33.246862 70.567662,32.872693 70.56514,32.182058 L70.56514,27.455603 C70.63364,26.933723 70.878872,26.556435 71.518723,26.502021 L83.970582,26.502021 L83.970582,24.415194 L71.864224,24.415194 C71.082582,24.526836 70.688657,24.302458 70.688794,23.736559 L70.688794,19.495259 C70.731764,18.87992 70.735264,18.246487 71.995151,18.188901 L84.578664,18.188901 L84.578664,16.56541 L71.643103,16.56541 C70.863101,16.444592 70.798441,16.085326 70.786261,15.708567 L70.786261,11.147953 C70.761811,10.403727 71.148402,10.043138 71.905684,10.028529 L84.633944,10.028529 L84.633944,7.9417027 L65.120043,7.9417027 L65.120043,31.380496 C65.136183,33.295905 64.579777,33.092913 64.095181,33.155609 C62.9848,33.296991 62.944334,32.271192 62.958137,31.186191 L62.958137,7.9969828 L56.662177,7.9969828 Z " />
    <rect stroke="none" fill="#000000" transform="matrix(1.25, 0, 0, 1.25000006009616, 0, 0)" x="25.468" y="6.9099989" width="0.86400002" height="2" />
    <rect stroke="none" fill="#000000" transform="matrix(1.25, 0, 0, 1.25000006009616, 0, 0)" x="26.970602" y="6.9099989" width="0.86400002" height="2" />
    <rect stroke="none" fill="#000000" transform="matrix(1.25, 0, 0, 1.25000006009616, 0, 0)" x="28.329567" y="6.9099989" width="0.86400002" height="2" />
    <rect stroke="none" fill="#000000" transform="matrix(1.25, 0, 0, 1.25000006009616, 0, 0)" x="29.74378" y="6.9099989" width="0.86400002" height="2" />
    <rect stroke="none" fill="#000000" transform="matrix(1.25, 0, 0, 1.25000006009616, 0, 0)" x="31.281738" y="6.9099989" width="0.86400002" height="2" />
    <rect stroke="none" fill="#000000" transform="matrix(1.25, 0, 0, 1.25000006009616, 0, 0)" x="32.62524" y="6.9099989" width="0.86400002" height="2" />
    <rect stroke="none" fill="#000000" transform="matrix(1.25, 0, 0, 1.25000006009616, 0, 0)" x="33.986423" y="6.9099989" width="0.86400002" height="2" />
    <rect stroke="none" fill="#000000" transform="matrix(1.25, 0, 0, 1.25000006009616, 0, 0)" x="35.61277" y="6.9099989" width="0.86400002" height="2" />
    <rect stroke="none" fill="#000000" transform="matrix(1.25, 0, 0, 1.25000006009616, 0, 0)" x="25.495615" y="19.799999" width="0.86400002" height="2" />
    <rect stroke="none" fill="#000000" transform="matrix(1.25, 0, 0, 1.25000006009616, 0, 0)" x="26.998217" y="19.799999" width="0.86400002" height="2" />
    <rect stroke="none" fill="#000000" transform="matrix(1.25, 0, 0, 1.25000006009616, 0, 0)" x="28.357182" y="19.799999" width="0.86400002" height="2" />
    <rect stroke="none" fill="#000000" transform="matrix(1.25, 0, 0, 1.25000006009616, 0, 0)" x="29.771395" y="19.799999" width="0.86400002" height="2" />
    <rect stroke="none" fill="#000000" transform="matrix(1.25, 0, 0, 1.25000006009616, 0, 0)" x="31.309353" y="19.799999" width="0.86400002" height="2" />
    <rect stroke="none" fill="#000000" transform="matrix(1.25, 0, 0, 1.25000006009616, 0, 0)" x="32.652855" y="19.799999" width="0.86400002" height="2" />
    <rect stroke="none" fill="#000000" transform="matrix(1.25, 0, 0, 1.25000006009616, 0, 0)" x="34.014038" y="19.799999" width="0.86400002" height="2" />
    <rect stroke="none" fill="#000000" transform="matrix(1.25, 0, 0, 1.25000006009616, 0, 0)" x="35.640385" y="19.799999" width="0.86400002" height="2" />
    <rect stroke="none" fill="#000000" transform="matrix(0, 1.25000006009616, -1.25, 0, 0, 0)" x="8.6952257" y="-25.642673" width="0.86400002" height="2" />
    <rect stroke="none" fill="#000000" transform="matrix(0, 1.25000006009616, -1.25, 0, 0, 0)" x="10.197828" y="-25.642673" width="0.86400002" height="2" />
    <rect stroke="none" fill="#000000" transform="matrix(0, 1.25000006009616, -1.25, 0, 0, 0)" x="11.556793" y="-25.642673" width="0.86400002" height="2" />
    <rect stroke="none" fill="#000000" transform="matrix(0, 1.25000006009616, -1.25, 0, 0, 0)" x="12.971006" y="-25.642673" width="0.86400002" height="2" />
    <rect stroke="none" fill="#000000" transform="matrix(0, 1.25000006009616, -1.25, 0, 0, 0)" x="14.383966" y="-25.617674" width="0.86400002" height="2" />
    <rect stroke="none" fill="#000000" transform="matrix(0, 1.25000006009616, -1.25, 0, 0, 0)" x="15.852468" y="-25.642673" width="0.86400002" height="2" />
    <rect stroke="none" fill="#000000" transform="matrix(0, 1.25000006009616, -1.25, 0, 0, 0)" x="17.263651" y="-25.642673" width="0.86400002" height="2" />
    <rect stroke="none" fill="#000000" transform="matrix(0, 1.25000006009616, -1.25, 0, 0, 0)" x="18.839996" y="-25.642673" width="0.86400002" height="2" />
    <rect stroke="none" fill="#000000" transform="matrix(0, 1.25000006009616, -1.25, 0, 0, 0)" x="8.8366461" y="-38.335239" width="0.86400002" height="2" />
    <rect stroke="none" fill="#000000" transform="matrix(0, 1.25000006009616, -1.25, 0, 0, 0)" x="10.339251" y="-38.335239" width="0.86400002" height="2" />
    <rect stroke="none" fill="#000000" transform="matrix(0, 1.25000006009616, -1.25, 0, 0, 0)" x="11.698215" y="-38.335239" width="0.86400002" height="2" />
    <rect stroke="none" fill="#000000" transform="matrix(0, 1.25000006009616, -1.25, 0, 0, 0)" x="13.112428" y="-38.335239" width="0.86400002" height="2" />
    <rect stroke="none" fill="#000000" transform="matrix(0, 1.25000006009616, -1.25, 0, 0, 0)" x="14.650388" y="-38.335239" width="0.86400002" height="2" />
    <rect stroke="none" fill="#000000" transform="matrix(0, 1.25000006009616, -1.25, 0, 0, 0)" x="15.993892" y="-38.335239" width="0.86400002" height="2" />
    <rect stroke="none" fill="#000000" transform="matrix(0, 1.25000006009616, -1.25, 0, 0, 0)" x="17.355074" y="-38.335239" width="0.86400002" height="2" />
    <rect stroke="none" fill="#000000" transform="matrix(0, 1.25000006009616, -1.25, 0, 0, 0)" x="18.981419" y="-38.335239" width="0.86400002" height="2" />
    <rect stroke="none" fill="#000000" transform="matrix(1.25, 0, 0, 1.25000006009616, 0, 0)" x="24.713383" y="7.9770718" width="12.657211" height="12.833987" />
    <rect stroke="none" fill="#000000" transform="matrix(1.25, 0, 0, 1.25000006009616, 0, 0)" x="34.966431" y="15.507758" width="0.070710674" height="0.63639611" />
    <rect stroke="none" fill="#000000" transform="matrix(0, 1.25000006009616, -1.25, 0, 0, 0)" x="36.938953" y="-26.198736" width="1.2317824" height="3.6970563" />
    <rect stroke="none" fill="#000000" transform="matrix(0, 1.25000006009616, -1.25, 0, 0, 0)" x="33.368069" y="-26.198736" width="1.2317824" height="3.6970563" />
    <rect stroke="none" fill="#000000" transform="matrix(0, 1.25000006009616, -1.25, 0, 0, 0)" x="29.54969" y="-26.198736" width="1.2317824" height="3.6970563" />
    <rect stroke="none" fill="#000000" transform="matrix(0, 1.25000006009616, -1.25, 0, 0, 0)" x="26.084867" y="-26.198736" width="1.2317824" height="3.6970563" />
    <rect stroke="none" fill="#000000" transform="matrix(0, 1.25000006009616, -1.25, 0, 0, 0)" x="36.956631" y="-38.714527" width="1.2317824" height="3.6970563" />
    <rect stroke="none" fill="#000000" transform="matrix(0, 1.25000006009616, -1.25, 0, 0, 0)" x="33.385746" y="-38.714527" width="1.2317824" height="3.6970563" />
    <rect stroke="none" fill="#000000" transform="matrix(0, 1.25000006009616, -1.25, 0, 0, 0)" x="29.567368" y="-38.714527" width="1.2317824" height="3.6970563" />
    <rect stroke="none" fill="#000000" transform="matrix(0, 1.25000006009616, -1.25, 0, 0, 0)" x="26.102545" y="-38.714527" width="1.2317824" height="3.6970563" />
    <rect stroke="none" fill="#000000" transform="matrix(1.25, 0, 0, 1.25000006009616, 0, 0)" x="24.925514" y="24.938534" width="11.172287" height="14.318912" />
    <rect stroke="none" fill="#000000" transform="matrix(1.25, 0, 0, 1.25000006009616, 0, 0)" x="42.75119" y="24.076923" width="2.1788583" height="3.0142136" />
    <rect stroke="none" fill="#000000" transform="matrix(1.25, 0, 0, 1.25000006009616, 0, 0)" x="42.75119" y="19.021112" width="2.1788583" height="3.0142136" />
    <rect stroke="none" fill="#000000" transform="matrix(1.25, 0, 0, 1.25000006009616, 0, 0)" x="46.649117" y="24.076923" width="2.1788583" height="3.0142136" />
    <rect stroke="none" fill="#000000" transform="matrix(1.25, 0, 0, 1.25000006009616, 0, 0)" x="46.649117" y="19.021112" width="2.1788583" height="3.0142136" />
    <rect stroke="none" fill="#000000" transform="matrix(1.25, 0, 0, 1.25000006009616, 0, 0)" x="43.416359" y="19.573622" width="4.9143925" height="7.0003567" />
    <rect stroke="none" fill="#000000" transform="matrix(1.25, 0, 0, 1.25000006009616, 0, 0)" x="44.275764" y="16.324675" width="2.3514719" height="1.175736" />
    <rect stroke="none" fill="#000000" transform="matrix(1.25, 0, 0, 1.25000006009616, 0, 0)" x="44.275764" y="16.324675" width="0.58786798" height="1.175736" />
    <rect stroke="none" fill="#000000" transform="matrix(1.25, 0, 0, 1.25000006009616, 0, 0)" x="46.051922" y="16.324675" width="0.58786798" height="1.175736" />
    <rect stroke="none" fill="#000000" transform="matrix(1.25, 0, 0, 1.25000006009616, 0.4419417375, 15.5121557457767)" x="44.275764" y="16.324675" width="2.3514719" height="1.175736" />
    <rect stroke="none" fill="#000000" transform="matrix(1.25, 0, 0, 1.25000006009616, 0.4419417375, 15.5121557457767)" x="44.275764" y="16.324675" width="0.58786798" height="1.175736" />
    <rect stroke="none" fill="#000000" transform="matrix(1.25, 0, 0, 1.25000006009616, 0.4419417375, 15.5121557457767)" x="46.051922" y="16.324675" width="0.58786798" height="1.175736" />
    <rect stroke="none" fill="#000000" transform="matrix(0, -1.25000006009616, 1.25, 0, 33.3392525, 72.7921847496243)" x="44.275764" y="16.324675" width="2.3514719" height="1.175736" />
    <rect stroke="none" fill="#000000" transform="matrix(0, -1.25000006009616, 1.25, 0, 33.3392525, 72.7921847496243)" x="44.275764" y="16.324675" width="0.58786798" height="1.175736" />
    <rect stroke="none" fill="#000000" transform="matrix(0, -1.25000006009616, 1.25, 0, 33.3392525, 72.7921847496243)" x="46.051922" y="16.324675" width="0.58786798" height="1.175736" />
    <rect stroke="none" fill="#000000" transform="matrix(1.25, 0, 0, 1.25000006009616, -19.4012425, -17.8102533562622)" x="44.275764" y="16.324675" width="2.3514719" height="1.175736" />
    <rect stroke="none" fill="#000000" transform="matrix(1.25, 0, 0, 1.25000006009616, -19.4012425, -17.8102533562622)" x="44.275764" y="16.324675" width="0.58786798" height="1.175736" />
    <rect stroke="none" fill="#000000" transform="matrix(1.25, 0, 0, 1.25000006009616, -19.4012425, -17.8102533562622)" x="46.051922" y="16.324675" width="0.58786798" height="1.175736" />
    <rect stroke="none" fill="#000000" transform="matrix(1.7173615, 0, 0, 1.77623933539612, -23.87476625, -26.6661037820242)" x="44.275764" y="16.324675" width="2.3514719" height="1.175736" />
    <rect stroke="none" fill="#000000" transform="matrix(1.7173615, 0, 0, 1.77623933539612, -23.87476625, -26.6661037820242)" x="44.275764" y="16.324675" width="0.58786798" height="1.175736" />
    <rect stroke="none" fill="#000000" transform="matrix(1.7173615, 0, 0, 1.77623933539612, -23.87476625, -26.6661037820242)" x="46.051922" y="16.324675" width="0.58786798" height="1.175736" />
    <path stroke="none" fill="#696969" transform="matrix(1.25, 0, 0, 1.25000006009616, 0, 0)" d="M31.130376,16.886617 C29.869308,15.690668 29.822893,13.530689 31.095026,12.343456 C32.703123,10.773996 34.453322,11.255445 35.673543,12.308096 L35.443733,12.59094 C33.811554,10.968056 31.945048,11.908062 31.307158,12.590939 C30.449158,13.592651 29.973017,15.158955 31.324838,16.639126 Z " />
    <path stroke="none" fill="#696969" transform="matrix(1, 0, 0, 1.00000004807693, 0.552427175, 0.39774633162242)" d="M39.708467,15.661341 A0.61871845 0.60766989 0 1 1 38.47103 15.661341 A0.61871845 0.60766989 0 1 1 39.708467 15.661341 Z " />
    <path stroke="none" fill="#696969" transform="matrix(1.25, 0, 0, 1.25000006009616, 0, 0)" d="M31.02431,13.563215 C32.139285,13.866968 32.756392,13.479785 32.403169,12.23739 C32.986502,11.651955 33.747129,11.716598 34.612877,12.16668 C34.814021,13.355646 34.471849,14.219365 33.83506,14.906718 C33.054013,15.67895 32.104434,15.947454 31.006633,15.772924 C30.713897,15.456466 30.741122,15.149165 30.935923,14.889041 C31.83352,15.079479 32.566047,14.857241 33.180987,14.341033 C33.743389,13.678978 33.867343,12.934714 33.675962,12.131324 C33.560188,12.113894 33.432041,12.097174 33.269375,12.149004 C33.58313,12.863156 33.380553,13.466666 33.039566,14.040515 C32.434106,14.691223 31.623415,14.755558 30.688435,14.464779 C30.715735,13.994931 30.856915,13.75286 31.024312,13.563217 Z " />
    <path stroke="none" fill="#696969" transform="matrix(1.25, 0, 0, 1.25000006009616, 0, 0)" d="M34.96643,12.803076 C35.488903,12.607094 35.715138,12.871926 35.814958,13.333405 C35.334415,15.967037 33.814806,16.605664 32.173358,17.01036 C31.652349,16.844957 31.480781,16.545153 31.572318,16.144155 C34.300429,15.698189 34.796659,14.318892 34.96643,12.803076 Z " />
    <path stroke="none" fill="#696969" transform="matrix(1.25, 0, 0, 1.25000006009616, 0, 0)" d="M33.110275,17.116427 C34.428185,16.585368 35.525237,15.823317 35.903347,14.305677 C35.950247,14.214217 36.11727,14.215917 36.115479,14.447099 C36.018569,16.398632 34.992277,17.291703 33.198664,17.310881 C33.035818,17.264251 33.101294,17.186487 33.110274,17.116427 Z " />
</svg>
