<?xml version="1.0" encoding="UTF-8" standalone="no"?>
<svg width="266.96px" height="123.8224px" viewBox="0 0 266.96 123.8224" version="1.1" xmlns="http://www.w3.org/2000/svg" xmlns:xlink="http://www.w3.org/1999/xlink">
    <defs>
    </defs>
    <rect stroke="none" fill="#878787" transform="matrix(2.22222222222222, 0, 0, 2.22218553148723, 0, 0)" x="107.157" y="25.221" width="12.975" height="4.562" />
    <rect stroke="none" fill="#2D2D2D" transform="matrix(2.22222222222222, 0, 0, 2.22218553148723, 0, 0)" x="107.157" y="25.221" width="0.451" height="4.562" />
    <rect stroke="none" fill="#000000" transform="matrix(2.22222222222222, 0, 0, 2.22218553148723, 0, 0)" x="107.157" y="29.258" width="12.975" height="0.522" />
    <path stroke="none" fill="#FFFFFF" fill-opacity="0.349019607843137" transform="matrix(2.22222222222222, 0, 0, 2.22218553148723, 0, 0)" d="M119.835,26.478 C119.835,26.733 119.56,26.939 119.218,26.939 L106.78,26.939 C106.44,26.939 106.163,26.751 106.163,26.496 L106.163,26.127 C106.163,25.871 106.44,25.648 106.78,25.648 L119.218,25.648 C119.56,25.648 119.835,25.855 119.835,26.109 L119.835,26.478 Z " />
    <path stroke-width="1" stroke="#6D6D6D" fill="#6D6D6D" transform="matrix(2.22222222222222, 0, 0, 2.22218553148723, 0, 0)" d="M106.687,7.465 C106.687,5.904 105.412,4.631 103.853,4.631 L103.822,4.631 C102.261,4.631 100.986,3.701 100.986,2.569 C100.986,1.437 99.713,0.508 98.152,0.508 L28.507,0.508 L28.507,55.209 L98.152,55.209 C99.713,55.209 100.986,54.279 100.986,53.147 C100.986,52.015 102.261,51.086 103.822,51.086 L103.853,51.086 C105.412,51.086 106.687,49.811 106.687,48.25 L106.687,7.465 L106.687,7.465 Z " />
    <path stroke="none" fill="#000000" transform="matrix(2.22222222222222, 0, 0, 2.22218553148723, 0, 0)" d="M104.28,47.815 L104.251,47.815 C102.7,47.815 101.149,48.421 101.149,49.161 C101.149,49.899 100.167,50.507 98.618,50.507 L34.22,50.507 L34.22,54.96 L98.053,54.96 C99.6,54.96 100.865,54.034 100.865,52.905 C100.865,51.776 102.135,50.85 103.681,50.85 L103.712,50.85 C105.261,50.85 106.526,49.579 106.526,48.026 L106.526,45.965 C106.53,46.983 105.829,47.815 104.28,47.815 Z " />
    <rect stroke="none" fill="#878787" transform="matrix(2.22222222222222, 0, 0, 2.22218553148723, 0, 0)" x="23.905" y="26.34" width="0.94" height="3.041" />
    <rect stroke="none" fill="#E5E500" transform="matrix(2.22222222222222, 0, 0, 2.22218553148723, 0, 0)" x="27.642" y="25.069" width="10.242" height="5.584" />
    <rect stroke="none" fill="#000000" transform="matrix(2.22222222222222, 0, 0, 2.22218553148723, 0, 0)" x="19.427422" y="18.865999" width="8.2145777" height="17.988001" />
    <path stroke="none" fill="#F3FF00" transform="matrix(2.22222222222222, 0, 0, 2.22218553148723, 0, 0)" d="M35.158,25.069 L35.158,0 L27.642,0 L27.642,26 L37.884,26 L37.884,29.719 L27.642,29.719 L27.642,55.721 L35.158,55.721 L35.158,30.653 L37.884,30.653 L37.884,25.069 Z " />
    <rect stroke="none" fill="#000000" transform="matrix(2.22222222222222, 0, 0, 2.22218553148723, 0, 0)" x="19.426199" y="14.610984" width="8.2145777" height="2.7328925" />
    <rect stroke="none" fill="#000000" transform="matrix(2.22222222222222, 0, 0, 2.22218553148723, 0, 0)" x="19.392111" y="38.504292" width="8.2145777" height="2.7328925" />
    <path stroke="none" fill="#686868" fill-opacity="0.501960784313725" transform="matrix(2.22222222222222, 0, 0, 2.22218553148723, 0, 0)" d="M101.724,28.065 C101.724,41.335 100.966,52.086 100.966,52.086 L100.966,4.047 C100.966,4.047 101.724,14.803 101.724,28.065 Z " />
    <path stroke="none" fill="#FFFFFF" fill-opacity="0.16078431372549" transform="matrix(2.22222222222222, 0, 0, 2.22218553148723, 0, 0)" d="M99.819,17.839 C99.819,19.256 98.394,20.403 96.638,20.403 L41.119,20.403 C39.362,20.403 37.938,19.354 37.938,17.936 L37.938,5.144 C37.938,3.726 39.362,2.476 41.119,2.476 L96.638,2.476 C98.394,2.476 99.819,3.626 99.819,5.044 L99.819,17.839 Z " />
    <path stroke="none" fill="#FFFFFF" transform="matrix(2.22222222222222, 0, 0, 2.22218553148723, 0, 0)" d="M105.595,18.178 C105.595,18.958 104.956,19.595 104.178,19.595 L103.826,19.595 C103.049,19.595 102.409,18.957 102.409,18.178 L102.409,7.685 C102.409,6.905 103.049,6.268 103.826,6.268 L104.178,6.268 C104.956,6.268 105.595,6.906 105.595,7.685 L105.595,18.178 Z " />
    <path stroke="none" fill="#000000" transform="matrix(2.22222222222222, 0, 0, 2.22218553148723, 0, 0)" d="M92.049,24.66 C91.015,24.66 90.173,23.819 90.173,22.785 L90.173,14.363 C90.173,13.328 91.015,12.486 92.049,12.486 C93.083,12.486 93.925,13.328 93.925,14.363 L93.925,22.785 C93.925,23.818 93.083,24.66 92.049,24.66 L92.049,24.66 Z " />
    <path stroke="none" fill="#6B6B6B" transform="matrix(2.22222222222222, 0, 0, 2.22218553148723, 0, 0)" d="M92.049,12.986 C92.808,12.986 93.425,13.604 93.425,14.363 L93.425,22.785 C93.425,23.545 92.808,24.16 92.049,24.16 C91.29,24.16 90.673,23.545 90.673,22.785 L90.673,14.363 C90.673,13.603 91.29,12.986 92.049,12.986 M92.049,11.986 C90.737,11.986 89.673,13.05 89.673,14.363 L89.673,22.785 C89.673,24.097 90.735,25.16 92.049,25.16 C93.361,25.16 94.425,24.098 94.425,22.785 L94.425,14.363 C94.425,13.05 93.361,11.986 92.049,11.986 L92.049,11.986 Z " />
    <path stroke="none" fill="#000000" transform="matrix(2.22222222222222, 0, 0, 2.22218553148723, 0, 0)" d="M92.049,43.234 C91.015,43.234 90.173,42.392 90.173,41.358 L90.173,32.937 C90.173,31.902 91.015,31.06 92.049,31.06 C93.083,31.06 93.925,31.902 93.925,32.937 L93.925,41.358 C93.925,42.392 93.083,43.234 92.049,43.234 L92.049,43.234 Z " />
    <path stroke="none" fill="#6B6B6B" transform="matrix(2.22222222222222, 0, 0, 2.22218553148723, 0, 0)" d="M92.049,31.56 C92.808,31.56 93.425,32.178 93.425,32.937 L93.425,41.358 C93.425,42.117 92.808,42.734 92.049,42.734 C91.29,42.734 90.673,42.117 90.673,41.358 L90.673,32.937 C90.673,32.178 91.29,31.56 92.049,31.56 M92.049,30.56 C90.737,30.56 89.673,31.624 89.673,32.937 L89.673,41.358 C89.673,42.67 90.735,43.734 92.049,43.734 C93.361,43.734 94.425,42.672 94.425,41.358 L94.425,32.937 C94.425,31.625 93.361,30.56 92.049,30.56 L92.049,30.56 Z " />
    <path stroke="none" fill="#000000" transform="matrix(2.22222222222222, 0, 0, 2.22218553148723, 0, 0)" d="M92.049,6.086 C91.015,6.086 90.173,5.243 90.173,4.211 L90.173,0.5 L93.925,0.5 L93.925,4.211 C93.925,5.245 93.083,6.086 92.049,6.086 L92.049,6.086 Z " />
    <path stroke="none" fill="#6B6B6B" transform="matrix(2.22222222222222, 0, 0, 2.22218553148723, 0, 0)" d="M93.425,1 L93.425,4.211 C93.425,4.969 92.808,5.586 92.049,5.586 C91.29,5.586 90.673,4.969 90.673,4.211 L90.673,1 L93.425,1 M94.425,0 L89.673,0 L89.673,4.211 C89.673,5.523 90.735,6.586 92.049,6.586 C93.361,6.586 94.425,5.523 94.425,4.211 L94.425,0 L94.425,0 Z " />
    <path stroke="none" fill="#000000" transform="matrix(2.22222222222222, 0, 0, 2.22218553148723, 0, 0)" d="M90.173,55.221 L90.173,51.51 C90.173,50.475 91.015,49.633 92.049,49.633 C93.083,49.633 93.925,50.475 93.925,51.51 L93.925,55.221 L90.173,55.221 Z " />
    <path stroke="none" fill="#6B6B6B" transform="matrix(2.22222222222222, 0, 0, 2.22218553148723, 0, 0)" d="M92.049,50.133 C92.808,50.133 93.425,50.751 93.425,51.51 L93.425,54.721 L90.673,54.721 L90.673,51.51 C90.673,50.751 91.29,50.133 92.049,50.133 M92.049,49.133 C90.737,49.133 89.673,50.195 89.673,51.51 L89.673,55.721 L94.425,55.721 L94.425,51.51 C94.425,50.198 93.361,49.133 92.049,49.133 L92.049,49.133 Z " />
    <path stroke-width="1.6" stroke="#FF0000" fill="none" transform="matrix(2.22222222222222, 0, 0, 2.22218553148723, 1.11513951111111, 0.223024206513164)" d="M20,49 C8,45 13,11 0.9,10.6 " />
    <path stroke-width="1.6" stroke="#000000" fill="none" transform="matrix(2.22222222222222, 0, 0, 2.22218553148723, 1.11513951111111, 0.223024206513164)" d="M20,51.5 C4,50 10,25 0.9,25.62 " />
    <path stroke-width="1.6" stroke="#FFFF00" fill="none" transform="matrix(2.22222222222222, 0, 0, 2.22218553148723, 1.11513951111111, 0.223024206513164)" d="M20,54 C6,55 8,40 0.9,40.6 " />
    <rect stroke="none" fill="#ECECEC" transform="matrix(2.22222222222222, 0, 0, 2.22218553148723, 1.11513951111111, 0.223024206513164)" x="19" y="46.5" width="8" height="9.1" />
    <rect stroke="none" fill="#8C8C8C" transform="matrix(2.22222222222222, 0, 0, 2.22218553148723, -45.5698555555556, 0.471404505480375)" x="21.509718" y="10" width="1" height="1" />
    <rect stroke="none" fill="#8C8C8C" transform="matrix(2.22222222222222, 0, 0, 2.22218553148723, -45.5698555555556, 0.471404505480375)" x="21.509718" y="25" width="1" height="1" />
    <rect stroke="none" fill="#8C8C8C" transform="matrix(2.22222222222222, 0, 0, 2.22218553148723, -45.5698555555556, 0.471404505480375)" x="21.509718" y="40" width="1" height="1" />
</svg>
