<?xml version="1.0" encoding="UTF-8" standalone="no"?>
<svg width="800px" height="334px" viewBox="0 0 800 334" version="1.1" xmlns="http://www.w3.org/2000/svg" xmlns:xlink="http://www.w3.org/1999/xlink">
    <defs>
    </defs>
    <rect stroke-width="1" stroke="#979797" fill="#D8D8D8" transform="matrix(1, 0, 0, 1, 1, 1)" x="0" y="0" width="388" height="96" />
    <text stroke="none" fill="#4FA5CD" transform="matrix(1, 0, 0, 1, 1, 1)" x="14" y="56" font-family="Helvetica" font-size="32">Left Aligned</text>
    <rect stroke-width="1" stroke="#979797" fill="#D8D8D8" transform="matrix(1, 0, 0, 1, 411, 119)" x="0" y="0" width="388" height="96" />
    <text stroke="none" fill="#4FA5CD" transform="matrix(1, 0, 0, 1, 411, 119)" x="15" y="42" font-family="Helvetica" font-size="32">Multiple</text>
    <text stroke="none" fill="#4FA5CD" transform="matrix(1, 0, 0, 1, 411, 119)" x="0" y="0" font-family="Helvetica" font-size="32">
                </text>
    <text stroke="none" fill="#4FA5CD" transform="matrix(1, 0, 0, 1, 411, 119)" x="135.875" y="42" font-family="Helvetica" font-size="32"> </text>
    <text stroke="none" fill="#4FA5CD" transform="matrix(1, 0, 0, 1, 411, 119)" x="0" y="0" font-family="Helvetica" font-size="32">
                </text>
    <text stroke="none" fill="#4FA5CD" transform="matrix(1, 0, 0, 1, 411, 119)" x="144.765625" y="42" font-family="Helvetica" font-size="32">Formats</text>
    <text stroke="none" fill="#4FA5CD" transform="matrix(1, 0, 0, 1, 411, 119)" x="0" y="0" font-family="Helvetica" font-size="32">
                </text>
    <text stroke="none" fill="#4FA5CD" transform="matrix(1, 0, 0, 1, 411, 119)" x="262.109375" y="42" font-family="Helvetica" font-size="32"> and </text>
    <text stroke="none" fill="#4FA5CD" transform="matrix(1, 0, 0, 1, 411, 119)" x="0" y="0" font-family="Helvetica" font-size="32">
                </text>
    <text stroke="none" fill="#4FA5CD" transform="matrix(1, 0, 0, 1, 411, 119)" x="15" y="80" font-family="Courier" font-size="32">Fonts</text>
    <text stroke="none" fill="#4FA5CD" transform="matrix(1, 0, 0, 1, 411, 119)" x="0" y="0" font-family="Helvetica" font-size="32">
                </text>
    <text stroke="none" fill="#4FA5CD" transform="matrix(1, 0, 0, 1, 411, 119)" x="111.015625" y="80" font-family="Helvetica" font-size="32"> and </text>
    <text stroke="none" fill="#4FA5CD" transform="matrix(1, 0, 0, 1, 411, 119)" x="0" y="0" font-family="Helvetica" font-size="32">
                </text>
    <text stroke="none" fill="#4FA5CD" transform="matrix(1, 0, 0, 1, 411, 119)" x="182.1875" y="80" font-family="Helvetica" font-size="14">Wrapping</text>
    <rect stroke-width="1" stroke="#979797" fill="#D8D8D8" transform="matrix(1, 0, 0, 1, 411, 1)" x="0" y="0" width="388" height="96" />
    <text stroke="none" fill="#4FA5CD" transform="matrix(1, 0, 0, 1, 411, 1)" x="15" y="30" font-family="Helvetica" font-size="20">Multiple</text>
    <text stroke="none" fill="#4FA5CD" transform="matrix(1, 0, 0, 1, 411, 1)" x="0" y="0" font-family="Helvetica" font-size="20">
                </text>
    <text stroke="none" fill="#4FA5CD" transform="matrix(1, 0, 0, 1, 411, 1)" x="15" y="54" font-family="Helvetica" font-size="20">Forced</text>
    <text stroke="none" fill="#4FA5CD" transform="matrix(1, 0, 0, 1, 411, 1)" x="0" y="0" font-family="Helvetica" font-size="20">
                </text>
    <text stroke="none" fill="#4FA5CD" transform="matrix(1, 0, 0, 1, 411, 1)" x="15" y="78" font-family="Helvetica" font-size="20">Lines</text>
    <rect stroke-width="1" stroke="#979797" fill="#D8D8D8" transform="matrix(1, 0, 0, 1, 1, 237)" x="0" y="0" width="388" height="96" />
    <text stroke="none" fill="#4FA5CD" transform="matrix(1, 0, 0, 1, 1, 237)" x="144.976562" y="56" font-family="Helvetica" font-size="32">Center</text>
    <rect stroke-width="1" stroke="#979797" fill="#D8D8D8" transform="matrix(1, 0, 0, 1, 1, 119)" x="0" y="0" width="388" height="96" />
    <text stroke="none" fill="#4FA5CD" transform="matrix(1, 0, 0, 1, 1, 119)" x="183.40625" y="56" font-family="Helvetica" font-size="32">Right Aligned</text>
</svg>
