<?xml version="1.0" standalone="no"?>
<!DOCTYPE svg PUBLIC "-//W3C//DTD SVG 1.1//EN" 
  "http://www.w3.org/Graphics/SVG/1.1/DTD/svg11.dtd">
<svg width="10cm" height="3cm" viewBox="0 0 1000 300"
     xmlns="http://www.w3.org/2000/svg" version="1.1">
  <desc>Example text01 - 'Hello, out there' in blue</desc>
  <path display="inline" fill="#D5812E" fill-opacity="0.4" d="M679.1,679.8c0,8.2-6,14.8-13.5,14.8h-48.8c-7.4,0-13.5-6.6-13.5-14.8
		v-77c0-8.2,6-14.8,13.5-14.8h48.8c7.4,0,13.5,6.6,13.5,14.8V679.8z"/>
  <g display="inline">
    <text transform="matrix(0.75 4.361695e-03 -5.815593e-03 1 614.7231 648.9194)">
      <tspan x="0" y="0" font-family="'KozGoPr6N-Bold-83pv-RKSJ-H'" font-size="24">頤</tspan>
      <tspan x="24" y="-0.5" font-family="'mplus-2p-heavy'" font-size="24">和園</tspan>
    </text>
    <text transform="matrix(0.75 4.361695e-03 -5.815593e-03 1 614.7231 648.9194)">
      <tspan x="0" y="0" fill="none" stroke="#FFFFFF" stroke-width="5" stroke-linecap="round" stroke-linejoin="round" font-family="'KozGoPr6N-Bold-83pv-RKSJ-H'" font-size="24">頤</tspan>
      <tspan x="24" y="-0.5" fill="none" stroke="#FFFFFF" stroke-width="5" stroke-linecap="round" stroke-linejoin="round" font-family="'mplus-2p-heavy'" font-size="24">和園</tspan>
    </text>
    <text transform="matrix(0.75 4.361695e-03 -5.815593e-03 1 614.7231 648.9194)">
      <tspan x="0" y="0" fill="#8F1D22" font-family="'KozGoPr6N-Bold-83pv-RKSJ-H'" font-size="24">頤</tspan>
      <tspan x="24" y="-0.5" fill="#8F1D22" font-family="'mplus-2p-heavy'" font-size="24">和園</tspan>
    </text>
  </g>
  <g>
    
    <g>
      <text transform="matrix(0.75 0 0 1 442.5127 69.6152)">
        <tspan x="0" y="0" fill="none" stroke="#FFFFFF" stroke-width="2" stroke-linecap="round" stroke-linejoin="round" font-family="'mplus-2p-bold'" font-size="21">至 八達嶺駅、延慶駅</tspan>
        <tspan x="58.9" y="24" fill="none" stroke="#FFFFFF" stroke-width="2" stroke-linecap="round" stroke-linejoin="round" font-family="'mplus-2p-bold'" font-size="21">（万里の長城</tspan>
        <tspan x="184.9" y="24" fill="none" stroke="#FFFFFF" stroke-width="2" stroke-linecap="round" stroke-linejoin="round" font-family="'mplus-2p-bold'" font-size="21" letter-spacing="-9.3">）</tspan>
      </text>
    </g>
    <text transform="matrix(0.75 0 0 1 442.5127 69.6152)">
      <tspan x="0" y="0" fill="#7E7E7F" font-family="'mplus-2p-bold'" font-size="21">至 八達嶺駅、延慶駅</tspan>
      <tspan x="58.9" y="24" fill="#7E7E7F" font-family="'mplus-2p-bold'" font-size="21">（万里の長城</tspan>
      <tspan x="184.9" y="24" fill="#7E7E7F" font-family="'mplus-2p-bold'" font-size="21" letter-spacing="-9.3">）</tspan>
    </text>
  </g>

  <text y="100" fill="none" stroke="red" stroke-width="3" stroke-linejoin="round" font-family="'mplus-2p-medium'" font-size="30">房山線</text>
  <text x="1" y="100" dx="10,20,30,40,60" dy="10,20,30,40,50,60">This is some SVG Text</text>
  <!-- Show outline of canvas using 'rect' element -->
  <!--<rect x="1" y="1" width="998" height="298"
        fill="none" stroke="blue" stroke-width="2" />-->
</svg>